<?xml version="1.0" encoding="utf-8"?>
<!-- Generator: Adobe Illustrator 26.0.3, SVG Export Plug-In . SVG Version: 6.00 Build 0)  -->
<svg version="1.1" id="Layer_1" xmlns="http://www.w3.org/2000/svg" xmlns:xlink="http://www.w3.org/1999/xlink" x="0px" y="0px"
	 viewBox="0 0 1746.3 286.8" style="enable-background:new 0 0 1746.3 286.8;" xml:space="preserve" width="500" height="100">
<g fill="#FFFFFF">
	<g id="Layer_2_7_">
		<g id="SHELL_Boom_6_">
			<g>
				<path d="M0.8,3.4h84.8c73.8,0,114,45.5,114,111.5c0,61.9-40.8,108.3-113,108.3H0.8L0.8,3.4L0.8,3.4z M43.1,184.6h42.4
					c48.7,0,71.6-31.4,71.6-69.7c0-43.3-23.6-73.2-72.2-73.2H43.1V184.6z"/>
			</g>
			<g>
				<path d="M217.9,180.2c0-33,24.5-47.7,58.1-47.7c8.6,0,17.1,1,25.4,3.1l13.2,3.1v-9.4c0-17.3-12.6-26.7-30.5-26.7
					c-18.5,0-29.2,10.4-32.3,24.8l-34.9-9.4c7.8-27.6,30.5-46.8,67.5-46.8c45.5,0,68.5,22,68.5,60.3v91.7h-36.7v-22.9
					c-9.4,16.6-24.2,26.1-49.3,26.1S217.9,209.4,217.9,180.2z M314.6,168.3V167l-9.1-2.8c-9.1-2.8-16.3-4.4-23.2-4.4
					c-14.1,0-23.6,6-23.6,17.9c0,10.4,7.8,17.9,24.2,17.9C300.8,195.6,314.6,185.9,314.6,168.3L314.6,168.3z"/>
			</g>
			<g>
				<path d="M415.9,74.4v22.3c11.5-15.8,29.8-25.2,49.3-25.4c40.2,0,70,31.1,70,78.2s-30.7,77-72.2,77c-20.4,0-37.7-8.5-45.5-22.3
					v81.3h-40.2v-211L415.9,74.4L415.9,74.4z M455.5,192.2c21.3,0,39.6-15.7,39.6-42.7c0-27.6-18.2-43.6-39.6-43.6
					c-20.4,0-39.6,15.4-39.6,43.6C415.9,177.1,435.1,192.2,455.5,192.2L455.5,192.2z"/>
			</g>
			<g>
				<path d="M593,74.4v22.3c11.5-15.8,29.8-25.2,49.3-25.4c40.2,0,70,31.1,70,78.2s-30.7,77-72.2,77c-20.4,0-37.7-8.5-45.5-22.3
					v81.3h-40.2v-211L593,74.4L593,74.4z M632.6,192.2c21.3,0,39.6-15.7,39.6-42.7c0-27.6-18.2-43.6-39.6-43.6
					c-20.4,0-39.6,15.4-39.6,43.6C593,177.1,612.2,192.2,632.6,192.2L632.6,192.2z"/>
			</g>
			<g>
				<path d="M843.6,166.4l34.2,13.5c-10,28.3-33.6,46.5-69.4,46.5c-45.8,0-78.8-30.8-78.8-78.5c0-42.4,29.5-76.6,74.1-76.6
					c41.1,0,69.1,25.8,69.1,66.9c0,6.1-0.6,12.2-1.9,18.2H769.8c0.6,23.6,19.2,35.5,39.2,35.5C828.2,191.8,839.2,182.1,843.6,166.4z
					 M769.8,129.7h63.7c0.2-0.4,0.3-0.8,0.3-1.3c0-15.1-12.2-24.8-30.2-24.8C787.7,103.6,773.6,113,769.8,129.7z"/>
			</g>
			<g>
				<path d="M938.3,74.4v19.1c6-13.2,17.9-22.3,35.8-22.3c27.6,0,42.7,19.2,42.7,44c0,6.2-0.7,12.5-2.2,18.5h-38
					c0.9-3.7,1.3-7.5,1.3-11.4c0-10.7-7.5-18.5-18.8-18.5c-12.6,0-20.7,8.5-20.7,23.6v95.8h-40.2V74.4H938.3z"/>
			</g>
		</g>
	</g>
	<g>
		<path d="M1140.3,1.3v182.5h129.2v39.7h-172V1.3H1140.3z"/>
		<path d="M1282.9,180c0-33.3,24.8-48.2,58.7-48.2c8.6,0,17.1,1,25.7,3.2l13.3,3.2v-9.5c0-17.5-12.7-27-30.8-27
			c-18.7,0-29.5,10.5-32.7,25.1l-35.2-9.5c7.9-27.9,30.8-47.3,68.2-47.3c46,0,69.2,22.2,69.2,60.9v92.7h-37.1v-23.2
			c-9.5,16.8-24.4,26.3-49.8,26.3C1307,226.7,1282.9,209.5,1282.9,180z M1380.6,167.9v-1.2l-9.2-2.9c-9.2-2.9-16.5-4.4-23.5-4.4
			c-14.3,0-23.8,6-23.8,18.1c0,10.5,7.9,18.1,24.4,18.1C1366.7,195.6,1380.6,185.7,1380.6,167.9z"/>
		<path d="M1486.9,1.3v94.3c9.8-15.2,28.2-25.7,48.2-25.7c40.6,0,70.8,31.4,70.8,79s-30.8,77.8-73,77.8c-19.7,0-37.1-7.9-47.6-23.2
			v20h-39V1.3H1486.9z M1525.4,192.1c21.6,0,40-15.9,40-43.2c0-27.9-18.4-44.1-40-44.1c-20.6,0-40,15.6-40,44.1
			C1485.4,176.8,1504.7,192.1,1525.4,192.1z"/>
		<path d="M1613.3,186.4l31.7-16.8c7.3,16.5,20.6,23.8,37.8,23.8c16.2,0,24.4-6.3,24.4-14.6c0-10.2-6.7-15.6-34.9-19.7
			c-31.1-4.8-51.4-18.7-51.4-45.1c0-27,27-44.1,57.5-44.1c33.6,0,48.9,13.6,57.1,31.7l-30.8,16.8c-3.8-11.7-13.6-17.1-25.4-17.1
			c-12.1,0-21.3,5.4-21.3,13c0,8.9,7.9,12.7,33.3,16.5c39.4,6,53.6,21.3,53.6,47.3c0,28.6-27.3,48.6-63.5,48.6
			C1646,226.7,1623.8,211.4,1613.3,186.4z"/>
	</g>
</g>
</svg>
