<svg xmlns="http://www.w3.org/2000/svg" width="164.235" height="31.972" viewBox="0 0 164.235 31.972">
  <path id="Path_3300" data-name="Path 3300" d="M30.652-14.159a10.538,10.538,0,0,1-1.174.223,11.458,11.458,0,0,1-1.655.112,4.536,4.536,0,0,1-2.678-.613,2.81,2.81,0,0,1-.818-2.362v-8.889a2.006,2.006,0,0,0-.6-1.618,2.341,2.341,0,0,0-1.566-.5,3.32,3.32,0,0,0-1.208.223,4.323,4.323,0,0,0-.985.522,1.976,1.976,0,0,0,.018.279,1.716,1.716,0,0,1,.018.241v12.384a10.538,10.538,0,0,1-1.174.223,11.458,11.458,0,0,1-1.655.112,4.536,4.536,0,0,1-2.678-.613,2.81,2.81,0,0,1-.818-2.362v-8.889a1.916,1.916,0,0,0-.652-1.618,2.511,2.511,0,0,0-1.58-.5,3.349,3.349,0,0,0-1.228.2,7.274,7.274,0,0,0-.856.391v13.049a10.538,10.538,0,0,1-1.174.223,11.458,11.458,0,0,1-1.655.112,4.536,4.536,0,0,1-2.678-.613A2.81,2.81,0,0,1,3.042-16.8V-28a2.871,2.871,0,0,1,.428-1.636,4.512,4.512,0,0,1,1.174-1.154,10.415,10.415,0,0,1,3.124-1.435,14.093,14.093,0,0,1,3.942-.539,10.32,10.32,0,0,1,2.919.41,8.985,8.985,0,0,1,2.622,1.265,12.05,12.05,0,0,1,2.511-1.19,10.329,10.329,0,0,1,3.367-.484,10.44,10.44,0,0,1,2.77.372,7.074,7.074,0,0,1,2.418,1.174,5.661,5.661,0,0,1,1.7,2.121,7.406,7.406,0,0,1,.633,3.217Zm8.592-6.509a3.231,3.231,0,0,0,1.749,1.878,6.773,6.773,0,0,0,2.752.539,11.123,11.123,0,0,0,2.975-.391,9.051,9.051,0,0,0,2.269-.913,3.115,3.115,0,0,1,1,1.044A2.667,2.667,0,0,1,50.4-17.1a2.528,2.528,0,0,1-.522,1.6,3.942,3.942,0,0,1-1.469,1.116,8.316,8.316,0,0,1-2.25.652,18.511,18.511,0,0,1-2.864.2,13.043,13.043,0,0,1-4.073-.613,9.042,9.042,0,0,1-3.255-1.846,8.446,8.446,0,0,1-2.157-3.088,11.178,11.178,0,0,1-.783-4.352,10.179,10.179,0,0,1,.8-4.221,8.229,8.229,0,0,1,2.121-2.9,8.59,8.59,0,0,1,2.994-1.674,11.092,11.092,0,0,1,3.422-.539,10.331,10.331,0,0,1,3.59.6,8.633,8.633,0,0,1,2.79,1.636,7.077,7.077,0,0,1,1.8,2.492,7.83,7.83,0,0,1,.633,3.162,2.538,2.538,0,0,1-.707,1.934,3.534,3.534,0,0,1-1.972.856Zm3.159-7.48a3.393,3.393,0,0,0-2.362.856,3.713,3.713,0,0,0-1.134,2.418l6.322-1.044a2.309,2.309,0,0,0-.223-.762,2.61,2.61,0,0,0-.522-.726,2.465,2.465,0,0,0-.856-.539,3.348,3.348,0,0,0-1.225-.2ZM60.37-13.568a7.614,7.614,0,0,1-5.04-1.488,5.99,5.99,0,0,1-1.767-4.835V-36.406q.41-.112,1.174-.241a9.612,9.612,0,0,1,1.618-.13A4.353,4.353,0,0,1,59-36.145a2.816,2.816,0,0,1,.818,2.349v2.008h4.873a6.368,6.368,0,0,1,.428,1.023,4.274,4.274,0,0,1,.2,1.357,2.58,2.58,0,0,1-.577,1.878,2.088,2.088,0,0,1-1.544.577H59.813v6.62a1.531,1.531,0,0,0,.613,1.377,3.1,3.1,0,0,0,1.729.41,7.467,7.467,0,0,0,1.154-.093,6.482,6.482,0,0,0,1.044-.241,4.546,4.546,0,0,1,.577.913,2.765,2.765,0,0,1,.241,1.208,2.871,2.871,0,0,1-1.06,2.306A5.914,5.914,0,0,1,60.37-13.568Zm14.876-4.575a8.342,8.342,0,0,0,1.395-.13,3.393,3.393,0,0,0,1.134-.354V-21.6l-2.678.223a4.116,4.116,0,0,0-1.711.446,1.2,1.2,0,0,0-.669,1.116,1.48,1.48,0,0,0,.577,1.208,3.157,3.157,0,0,0,1.955.461Zm-.3-14.615a15.268,15.268,0,0,1,3.664.41A8.2,8.2,0,0,1,81.44-31.1a5.623,5.623,0,0,1,1.809,2.117,6.786,6.786,0,0,1,.633,3.031v8.332a2.307,2.307,0,0,1-.539,1.58,5.372,5.372,0,0,1-1.283,1.06,13.291,13.291,0,0,1-6.807,1.451A15.547,15.547,0,0,1,71.7-13.9a8.434,8.434,0,0,1-2.716-1.116,5.122,5.122,0,0,1-1.749-1.9,5.611,5.611,0,0,1-.613-2.678,5.037,5.037,0,0,1,1.525-3.942,8.221,8.221,0,0,1,4.724-1.711l4.873-.522v-.265a1.6,1.6,0,0,0-.949-1.544,6.384,6.384,0,0,0-2.734-.465,12.728,12.728,0,0,0-2.731.3A14.5,14.5,0,0,0,68.893-27a2.576,2.576,0,0,1-.818-1.023,3.235,3.235,0,0,1-.335-1.435A2.387,2.387,0,0,1,68.2-31a3.6,3.6,0,0,1,1.435-.985,11.174,11.174,0,0,1,2.547-.6,22.119,22.119,0,0,1,2.765-.177ZM98.16-15.5a8.673,8.673,0,0,1-1.655.465,11.263,11.263,0,0,1-2.027.167,10.723,10.723,0,0,1-3.18-.465,6.717,6.717,0,0,1-2.641-1.525,7.467,7.467,0,0,1-1.8-2.734,11.042,11.042,0,0,1-.669-4.091,10.364,10.364,0,0,1,.688-3.924,7.83,7.83,0,0,1,1.934-2.845,8.02,8.02,0,0,1,3.031-1.729,12.909,12.909,0,0,1,3.98-.577,13.942,13.942,0,0,1,2.046.149,13.522,13.522,0,0,1,1.878.41,15.461,15.461,0,0,1,1.58.559,6.593,6.593,0,0,1,1.19.633,4.382,4.382,0,0,1,1.174,1.174,2.957,2.957,0,0,1,.428,1.655v13.8a7.448,7.448,0,0,1-.726,3.4,6.663,6.663,0,0,1-2.008,2.38A8.641,8.641,0,0,1,98.367-7.2a14.768,14.768,0,0,1-3.7.446,17.551,17.551,0,0,1-3.534-.316,6.894,6.894,0,0,1-2.418-.913,2.871,2.871,0,0,1-1.339-2.529,3.444,3.444,0,0,1,.354-1.566,2.885,2.885,0,0,1,.8-1.044,12.5,12.5,0,0,0,2.436,1,9.808,9.808,0,0,0,2.845.41,6.437,6.437,0,0,0,3.162-.669,2.29,2.29,0,0,0,1.19-2.157Zm-2.492-4.091a4.743,4.743,0,0,0,1.321-.167,4.3,4.3,0,0,0,1.06-.465v-7.142a6.817,6.817,0,0,0-.836-.316,4.013,4.013,0,0,0-1.134-.13,3.559,3.559,0,0,0-2.61.985,4.306,4.306,0,0,0-1,3.18,4.343,4.343,0,0,0,.913,3.2,3.211,3.211,0,0,0,2.293.855Zm30.314-3.57a11.092,11.092,0,0,1-.688,4.017,8.341,8.341,0,0,1-1.972,3.03,8.759,8.759,0,0,1-3.068,1.916,11.374,11.374,0,0,1-4.017.669,11.668,11.668,0,0,1-4.017-.652,8.542,8.542,0,0,1-3.068-1.9,8.341,8.341,0,0,1-1.972-3.031,11.208,11.208,0,0,1-.688-4.054,10.729,10.729,0,0,1,.707-3.98,8.546,8.546,0,0,1,1.99-3.031,8.759,8.759,0,0,1,3.068-1.916,11.262,11.262,0,0,1,3.98-.669,10.987,10.987,0,0,1,3.98.688,8.983,8.983,0,0,1,3.068,1.934,8.546,8.546,0,0,1,1.99,3.031,10.624,10.624,0,0,1,.7,3.947Zm-9.744-4.651a2.789,2.789,0,0,0-2.418,1.208,5.9,5.9,0,0,0-.856,3.441,5.948,5.948,0,0,0,.856,3.516,2.817,2.817,0,0,0,2.418,1.174,2.8,2.8,0,0,0,2.418-1.19,5.962,5.962,0,0,0,.856-3.5,5.9,5.9,0,0,0-.856-3.441,2.789,2.789,0,0,0-2.418-1.212Zm30.8,4.65a11.092,11.092,0,0,1-.688,4.017,8.341,8.341,0,0,1-1.972,3.031,8.759,8.759,0,0,1-3.068,1.916,11.374,11.374,0,0,1-4.017.669,11.668,11.668,0,0,1-4.017-.652,8.542,8.542,0,0,1-3.068-1.9,8.341,8.341,0,0,1-1.972-3.031,11.21,11.21,0,0,1-.688-4.054,10.729,10.729,0,0,1,.707-3.98,8.546,8.546,0,0,1,1.99-3.031,8.759,8.759,0,0,1,3.068-1.916,11.262,11.262,0,0,1,3.98-.669,10.987,10.987,0,0,1,3.98.688,8.983,8.983,0,0,1,3.068,1.934,8.546,8.546,0,0,1,1.99,3.031,10.624,10.624,0,0,1,.7,3.947Zm-9.745-4.65a2.789,2.789,0,0,0-2.418,1.208,5.9,5.9,0,0,0-.86,3.442,5.948,5.948,0,0,0,.856,3.516,2.817,2.817,0,0,0,2.418,1.174,2.8,2.8,0,0,0,2.418-1.19,5.962,5.962,0,0,0,.856-3.5A5.9,5.9,0,0,0,139.7-26.6a2.789,2.789,0,0,0-2.414-1.214Zm20.866-4.947a8.252,8.252,0,0,1,2.752.41v-6.025a10.54,10.54,0,0,1,1.174-.223,11.459,11.459,0,0,1,1.655-.112,4.536,4.536,0,0,1,2.678.613,2.81,2.81,0,0,1,.818,2.362v17.63a3.175,3.175,0,0,1-1.636,2.79,11.391,11.391,0,0,1-2.77,1.246,12.94,12.94,0,0,1-3.924.539,11.075,11.075,0,0,1-7.588-2.4,9.054,9.054,0,0,1-2.716-7.16,11.272,11.272,0,0,1,.744-4.278,8.329,8.329,0,0,1,2.027-3.013,8.351,8.351,0,0,1,3.031-1.785,11.581,11.581,0,0,1,3.753-.6Zm2.79,5.35a4.714,4.714,0,0,0-.893-.3,4.452,4.452,0,0,0-1-.112,3.831,3.831,0,0,0-2.994,1.174,5.155,5.155,0,0,0-1.06,3.552,5.055,5.055,0,0,0,1,3.459,3.654,3.654,0,0,0,2.864,1.116,4.757,4.757,0,0,0,1.228-.149,3.223,3.223,0,0,0,.856-.335Z" transform="translate(-3.019 38.727)" fill="#fff"/>
</svg>
