<svg viewBox="0 0 100 129" fill="none"  width="100" height="129" xmlns="http://www.w3.org/2000/svg">
<path d="M36.1 41.33v-9.06c0-10.74 5.23-17.6 13.98-17.6 8.8 0 13.85 6.68 13.85 17.6v9.06c0 11-5.04 17.56-13.84 17.56-8.76 0-13.98-6.78-13.98-17.56Zm23.17.34v-9.7c0-8.03-3.45-12.86-9.23-12.82-5.82 0-9.36 4.92-9.36 12.82v9.7c0 7.9 3.45 12.82 9.36 12.82 5.78.04 9.23-4.84 9.23-12.82Z" fill="#fff"></path>
<path d="M36.15 67.77v-9.06c0-10.74 5.22-17.6 13.98-17.6 8.8 0 13.85 6.69 13.85 17.6v9.06c0 11-5.05 17.56-13.85 17.56-8.76 0-13.98-6.81-13.98-17.56Zm23.21.3v-9.7c0-8.02-3.45-12.86-9.23-12.81-5.82 0-9.36 4.91-9.36 12.8v9.72c0 7.9 3.45 12.8 9.36 12.8 5.78.05 9.23-4.78 9.23-12.8Z" fill="#fff"></path>
<path d="M50 100C22.43 100 0 77.57 0 50S22.43 0 50 0s50 22.43 50 50-22.43 50-50 50Zm0-95.64A45.69 45.69 0 0 0 4.36 50 45.72 45.72 0 0 0 50 95.64 45.68 45.68 0 0 0 95.64 50 45.69 45.69 0 0 0 50 4.36ZM18.38 123.25l.56-4c.47-3.59 2.8-6.1 6.08-6.1 3.32 0 4.88 2.38 4.36 6.1l-.56 4c-.52 3.76-2.72 6.09-6.04 6.09-3.32.04-4.92-2.5-4.4-6.09Zm7.98.22.6-4.4c.3-2.2-.56-3.58-2.28-3.58-1.77.04-3.02 1.46-3.28 3.58l-.6 4.4c-.3 2.11.51 3.58 2.28 3.58 1.68 0 2.98-1.38 3.28-3.58Zm5.14 4.66 1.93-13.72a1.5 1.5 0 0 1 1.47-1.3c.52 0 .9.3 1.08.74l3.67 10.1h.08l1.34-9.63c.13-.64.73-1.2 1.42-1.2.65 0 1.17.56 1.04 1.2l-1.9 13.72c-.13.74-.78 1.3-1.47 1.3-.51 0-.9-.26-1.03-.74l-3.67-10.14h-.09l-1.33 9.67c-.09.65-.74 1.2-1.43 1.2-.73.05-1.2-.51-1.12-1.2Zm15.14.95c-.82 0-1.21-.48-1.13-1.3l1.82-13.03c.13-.82.64-1.29 1.46-1.29h7c.6 0 1.03.56.9 1.17-.09.6-.65 1.16-1.21 1.16h-5.82l-.6 4.23h4.6c.61 0 1.04.52.96 1.16-.09.6-.65 1.17-1.25 1.17h-4.62l-.6 4.4h5.78c.56 0 .99.56.9 1.16-.08.6-.64 1.17-1.25 1.17h-6.94Zm12.9-6.13v-3.32c0-3.93 1.9-6.47 5.13-6.47s5.09 2.46 5.09 6.47v3.32c0 4.01-1.86 6.43-5.1 6.43-3.18 0-5.12-2.5-5.12-6.43Zm8.54.09v-3.58c0-2.94-1.25-4.7-3.37-4.7-2.15 0-3.45 1.8-3.45 4.7v3.58c0 2.89 1.25 4.7 3.45 4.7 2.07.04 3.37-1.77 3.37-4.7Zm5.13 5.48v-14.15c0-.56.35-.91.9-.91h7.38c.4 0 .78.35.78.82 0 .43-.34.82-.78.82h-6.55v5.3h5.35c.43 0 .77.35.77.82 0 .48-.34.83-.77.83h-5.35v6.47a.87.87 0 0 1-1.73 0Z" fill="#fff"></path></svg>