<?xml version="1.0" encoding="UTF-8" standalone="no"?>
<svg
   xmlns:dc="http://purl.org/dc/elements/1.1/"
   xmlns:cc="http://creativecommons.org/ns#"
   xmlns:rdf="http://www.w3.org/1999/02/22-rdf-syntax-ns#"
   xmlns:svg="http://www.w3.org/2000/svg"
   xmlns="http://www.w3.org/2000/svg"
   xmlns:sodipodi="http://sodipodi.sourceforge.net/DTD/sodipodi-0.dtd"
   xmlns:inkscape="http://www.inkscape.org/namespaces/inkscape"
   viewBox="0 0 100 34"
   height="136"
   width="400"
   xml:space="preserve"
   id="svg2"
   version="1.1"
   sodipodi:docname="Sony Music logo.svg"
   inkscape:version="0.92.4 (5da689c313, 2019-01-14)"><title
     id="title824">Wish logo</title><sodipodi:namedview
     pagecolor="#ffffff"
     bordercolor="#666666"
     borderopacity="1"
     objecttolerance="10"
     gridtolerance="10"
     guidetolerance="10"
     inkscape:pageopacity="0"
     inkscape:pageshadow="2"
     inkscape:window-width="1366"
     inkscape:window-height="705"
     id="namedview17"
     showgrid="false"
     inkscape:showpageshadow="false"
     inkscape:zoom="1"
     inkscape:cx="56.37296"
     inkscape:cy="17.924586"
     inkscape:window-x="-8"
     inkscape:window-y="-8"
     inkscape:window-maximized="1"
     inkscape:current-layer="svg2" /><metadata
     id="metadata8"><rdf:RDF><cc:Work
         rdf:about=""><dc:format>image/svg+xml</dc:format><dc:type
           rdf:resource="http://purl.org/dc/dcmitype/StillImage" /><dc:title>Wish logo</dc:title><cc:license
           rdf:resource="http://scripts.sil.org/OFL" /><dc:date>14 feb 2020</dc:date><dc:creator><cc:Agent><dc:title>EEIM</dc:title></cc:Agent></dc:creator></cc:Work><cc:License
         rdf:about="http://scripts.sil.org/OFL"><cc:permits
           rdf:resource="http://scripts.sil.org/pub/OFL/Reproduction" /><cc:permits
           rdf:resource="http://scripts.sil.org/pub/OFL/Distribution" /><cc:permits
           rdf:resource="http://scripts.sil.org/pub/OFL/Embedding" /><cc:permits
           rdf:resource="http://scripts.sil.org/pub/OFL/DerivativeWorks" /><cc:requires
           rdf:resource="http://scripts.sil.org/pub/OFL/Notice" /><cc:requires
           rdf:resource="http://scripts.sil.org/pub/OFL/Attribution" /><cc:requires
           rdf:resource="http://scripts.sil.org/pub/OFL/ShareAlike" /><cc:requires
           rdf:resource="http://scripts.sil.org/pub/OFL/DerivativeRenaming" /><cc:requires
           rdf:resource="http://scripts.sil.org/pub/OFL/BundlingWhenSelling" /></cc:License></rdf:RDF></metadata><defs
     id="defs6"><clipPath
       id="clipPath20"
       clipPathUnits="userSpaceOnUse"><path
         id="path18"
         d="m 187.676,509.922 c 5.429,-0.852 11.832,-0.031 13.539,0.789 1.359,0.66 -0.262,1.309 -7.738,1.121 0.562,3.887 -5.567,-0.391 -5.801,-1.91 m 75.476,125.719 c -9.07,1.152 -18.226,-0.207 -27.23,-1.27 l -13.262,0.676 c -6.062,-6.516 15.567,-4.563 16.535,-4.348 1.7,0.352 4.321,0.317 7.223,0.278 6.762,-0.086 15.043,-0.172 16.734,4.664 m 38.723,-32.891 c 0.922,13.613 -18.969,3.516 -17.109,2.773 2.074,-0.859 14.66,-2.824 17.109,-2.773 M 408.34,575.719 c 1.672,0.535 4.187,0.246 6.707,-0.043 4.769,-0.547 9.57,-1.094 8.769,3.922 -6.765,0.34 -12.324,-0.559 -15.476,-3.879 m 63.008,0.293 c -1.743,4.004 -2.532,6.113 -10.043,5.625 -2.399,0.566 -4.867,2.832 -7.95,2.754 -3.492,-0.118 -6.031,-1.114 -8.039,-2.864 -5.457,0.871 -12.015,-1.511 -13.738,-3.855 3.992,0.691 7.563,-0.024 10.852,-0.738 3.758,-0.821 7.148,-1.637 10.379,-0.356 4.781,1.895 14.664,4.199 19.402,-0.859 l -0.863,0.293 m 93.55,650.488 c 0.051,-5.01 12.622,-10.6 13.782,-4.25 -3.16,-0.73 -7.168,2.54 -12.242,5.81 -5.094,3.29 -11.266,6.58 -18.727,5.8 5.805,-2.63 10.273,-6.13 16.906,-6.2 l 0.281,-1.16 m 11.848,-890.801 c -4.512,0.961 -13.316,-3.148 -7.754,-5.82 0.578,3.961 5.91,3.359 7.754,5.82 m 17.418,1033.661 c -1.883,-0.18 -3.805,0.34 -5.594,0.86 -3.652,1.07 -6.765,2.13 -7.949,-2.79 1.887,0.16 3.789,-0.37 5.563,-0.89 3.679,-1.09 6.789,-2.18 7.98,2.82 M 615.469,327.949 c -8.883,-1.527 -21.149,0.481 -23.239,-7.738 4.922,-1.531 23.239,1.93 23.239,7.738 M 629.016,1452.6 c -2.012,-0.28 -3.801,0.23 -5.352,0.74 -2.988,0.97 -5.105,1.95 -6.277,-2.68 1.246,0.39 3.101,0.18 4.972,-0.03 3.231,-0.37 6.493,-0.74 6.657,1.97 m 3.867,-1120.76 c -4.442,0.469 -7.262,-0.52 -7.742,-3.891 4.429,-0.551 7.246,0.41 7.742,3.891 m 77.437,3.859 c 2.973,4.75 15.879,-0.41 15.481,7.731 -6.621,0.101 -19.699,-3.45 -15.481,-7.731 m 17.414,1132.391 c -1.367,-0.48 -2.902,0.29 -4.359,1.05 -2.262,1.19 -4.336,2.38 -5.328,-1.05 1.223,-1.14 9.199,-4.61 9.687,0 M 737.41,345.289 c 5.883,5.172 21.192,0.813 23.227,9.762 -8.625,-0.551 -25.801,-5.582 -23.227,-9.762 m 17.426,52.359 c 1.031,1.793 1.687,3.731 1.934,5.782 -3.442,0 -6.672,-1.149 -5.813,-5.782 1.309,0 2.59,0 3.879,0 M 735.477,1471.95 c 8.632,-0.95 24.433,-7.7 29.043,-3.86 -2.223,2.34 -13.504,7.36 -22.098,5.91 -7.742,2.3 -14.524,1.75 -14.688,-2.05 2.579,0 5.164,0 7.743,0 m 30.976,77.44 c -1.031,0 -11.172,1.25 -11.617,-1.95 0.805,0.26 2.383,0.05 4.125,-0.15 3.363,-0.38 7.328,-0.77 7.492,2.1 m 27.102,-81.3 c 0.476,5.07 -11.946,7.18 -13.555,3.86 2.598,0.07 3.988,-1.05 5.367,-2.17 1.828,-1.49 3.633,-2.98 8.188,-1.69 m -15.496,73.54 c 4.234,0.66 7.882,0.17 11.07,-0.32 5.059,-0.77 8.945,-1.55 12.148,2.26 -7.488,1.61 -18.379,3.79 -23.218,-1.94 m 27.097,-67.74 c -4.758,0.24 -8.066,-1.05 -9.676,-3.87 4.84,-0.32 9.442,-0.4 9.676,3.87 m 29.043,69.68 c -1.91,-0.33 -5.234,0.58 -8.801,1.48 -6.082,1.55 -12.851,3.1 -14.441,-1.48 10.664,-0.24 14.441,-6.21 23.242,0 m 44.52,-1163.351 c -0.235,2.492 3.937,3.922 1.933,7.742 -1.05,-1.289 -7.808,-5.891 -1.933,-7.742 m 30.976,17.429 c 5.207,2.461 12.778,3.653 15.481,9.661 -12.41,-2.5 -24.207,-8.028 -32.903,-17.411 6.797,0.082 11.665,4.981 17.422,7.75 M 1047.11,1506.8 c -3.93,-0.67 -7.42,1.26 -10.47,3.2 -3.57,2.26 -6.52,4.52 -8.87,2.61 6.54,-2.34 14.04,-13.79 19.34,-5.81 m 35.92,-1017.038 c -1.53,6.758 4.52,7.047 8.6,12.41 -5.9,-1.332 -25.33,-20.551 -26.09,-26.172 -1.16,-8.531 -27.39,-19.719 -31.97,-28.031 0.85,1.242 1.78,2.422 2.81,3.531 -0.83,-0.469 -9.1,-13.898 -10.54,-11.27 -2.6,-0.019 -10.4,-3.808 -17.35,-10.031 -4.4,-2.84 -7.87,-3.679 -7.81,-5.461 4.96,0.801 7.9,2.821 12.54,4.793 4.78,2.028 4.08,4.809 6.81,6.828 -0.69,-0.48 8.79,3.911 11.59,6.762 7.32,7.488 13.16,8.777 20.71,16.027 4.23,4.071 10.52,8.422 10.78,10.461 2.41,9.993 10.47,14.18 18.4,19.403 l 1.52,0.75 m 281.55,674.408 c 0.98,6.1 -3.15,13.64 -5.66,18.89 -3.85,8.01 0.6,12.16 -4.45,19.48 1.5,-10.08 4.85,-33.1 10.11,-38.37 m 4.51,-29.94 c 0.41,10.33 -0.25,13.36 -2.57,18.33 -4.29,-7.98 -1.63,-13.32 2.57,-18.33 m 1.29,-68.77 c -0.26,4.76 -0.36,8.17 -2.25,14.94 -2.43,8.73 -4.04,17.31 -5.61,26.25 -2.76,15.65 -4.35,31.38 -7.93,46.74 -1.59,6.84 -3.66,13.76 -5.61,20.46 -2.43,8.35 -2.62,16.84 -6.91,24.66 -4.45,8.15 -5.24,24.45 -16.21,39.22 0.37,-8.84 18.03,-26.48 5.81,-32.91 -3.41,-0.77 -6.43,-0.52 -15.45,29.25 -3.71,9.56 -12.06,15.81 -13.21,26.89 -8.03,1.96 -9.77,12.82 -14.84,18.45 -2.23,2.49 -9.26,6.95 -7.8,11.09 0.39,0.89 5.06,1.21 4.04,3.53 -1.39,0.19 -2.81,0.07 -4.09,-0.05 -3.8,-0.35 -6.33,-0.71 -3.24,7.11 2.19,5.47 -21.41,8.82 -13.15,16.01 1.35,0.66 2.51,-0.09 3.45,-0.84 1.16,-0.94 1.98,-1.87 2.4,-0.05 -5.09,4.28 -10.07,6.34 -15.37,10.33 -6.91,5.21 -4.17,7.36 -8.32,12.61 -1.98,1.99 -8.61,-0.19 -6.56,6.8 -2.73,2.75 -12.59,12.85 -4.65,11.8 16.37,-8.01 31.35,-28.89 43.01,-41.06 4.71,-4.92 2.86,-6.54 9.13,-11.24 4.77,-3.55 9.78,-7.99 11.84,-13.74 1.87,-5.27 7.21,-19.11 13.27,-18.35 0.53,1.2 -0.36,3.83 -1.97,7 -3.32,-1.71 -6.6,13.92 -14.32,19.69 -13.34,8.29 -17.49,24.99 -31.91,32.53 -6,10.85 -18.4,21.62 -25.9,30.52 -5.38,6.37 -12.82,12.83 -20.67,16.12 3.9,4.89 2.87,6.01 -1.76,7.06 -0.59,-4.86 -10.17,2.06 -12.36,4.79 -1.8,-0.13 -0.92,2.34 -0.65,4.81 0.28,2.59 -0.09,5.17 -4.88,4.77 -5.67,-0.49 -8.2,11.85 -14.38,14.87 -5.94,2.91 -20.6,-1.48 -22.67,7.05 -1.76,7.16 1.9,5.64 5.8,4.12 2.99,-1.17 6.12,-2.34 7.05,0.42 -5.57,3.65 -11.29,7.01 -16.39,11.34 -7.95,6.78 -10.09,9.61 -19.31,14.41 -5.12,2.66 -9.58,6.34 -13.55,10.48 -6.5,6.75 -10.41,7.32 -17.76,12.22 -4.26,2.83 -7.87,6.51 -12.94,8.01 -3.73,-0.09 -1.65,-11.88 -7.74,-3.26 -5.66,8.03 -4.87,8 -13.78,13.18 -4.52,2.62 -11.37,8.81 -17.19,7.51 6.09,-7.62 17.27,-9.91 21.3,-19.37 -4.84,1.33 -10.08,1.91 -11.62,-3.86 -5.35,6.17 -13.37,8.86 -21.28,9.67 -6.91,8.67 -3.29,5.47 -11.6,3.87 -7.34,9.78 -14.09,25.66 -25.16,15.49 -2.38,4.72 -4.63,5.83 -9.693,3.88 1.348,6.98 -6.524,4.5 -9.68,7.73 -0.457,-3.23 5.598,-9.63 0,-11.61 -3.824,-0.38 -7.176,0.78 -9.097,4.24 -3.528,6.39 -2.114,18.76 -12.192,18.98 2.356,-3.18 1.66,-5.52 -1.941,-6.56 -5.723,-1.65 -3.184,-2.97 -3.653,-8.3 -0.429,-5.02 -8.117,-2.12 -8.75,1.12 -0.957,4.87 3.875,8.69 0.813,13.74 5.551,-0.61 7.586,1.63 6.992,3.88 -0.605,2.27 -3.894,4.55 -8.957,3.87 1.797,0.24 0.367,-0.93 -1.73,-2.11 -2.52,-1.41 -6.004,-2.83 -6.004,-1.77 1.738,0.19 3.047,-0.46 3.875,-1.94 -5.535,-3.36 -0.301,-4.81 0,-9.67 -3.883,3.55 -11.922,2.41 -11.618,9.67 0.008,0.17 7.047,22.21 -1.21,14.72 -1.223,-1.78 -1.829,-3.74 -1.829,-5.91 -0.472,-3.08 -1.48,-3.03 -2.617,-2.98 -1.004,0.04 -2.101,0.08 -3.027,-2.01 -2.742,-6.21 0.058,-7.51 -0.996,-13.49 -4.5,1.74 -12.746,6.01 -17.293,2.11 -0.664,-4.63 -2.656,-5.37 -5.996,-2.2 -3.742,1.07 -10.071,1.2 -11.555,5.9 0.977,0.02 2.121,-0.05 3.348,-0.11 3.75,-0.21 8.226,-0.42 10.715,1.97 5.761,5.5 -3.665,5.64 -6.282,5.08 -7.105,-1.54 -16.922,-9.2 -21.336,0.8 8.399,-0.15 3.875,3.56 7.754,7.74 1.149,2.34 2.891,1.5 4.653,0.66 1.898,-0.9 3.812,-1.8 5.015,1.27 -0.605,1.8 -2.711,1.73 -4.808,1.66 -2.297,-0.08 -4.578,-0.16 -4.86,2.23 -0.332,2.11 1.485,2.09 3.25,2.06 1.153,-0.01 2.285,-0.03 2.793,0.54 4.516,5 -11.734,3.74 -11.621,2.35 0.688,-0.91 1.106,-1.92 1.25,-3.04 -3.711,-3.18 -8.273,0.94 -13.351,5.06 -5.286,4.28 -11.133,8.56 -17.172,4.63 5.879,-1.29 14.578,-2 15.476,-9.68 -2.062,-0.41 -4.664,0.08 -7.32,0.57 -4.738,0.88 -9.652,1.75 -12.023,-2.49 10.339,-2.07 24.316,-0.57 32.906,-7.76 -3.926,-3.11 -10.047,-2.65 -15.68,-2.19 -2.73,0.22 -5.344,0.45 -7.543,0.26 0.227,-2.66 1.524,-4.6 3.859,-5.81 -12.949,-0.82 -19.863,-6.4 -32.902,-3.87 -13.648,2.52 -27.754,4.66 -42.574,5.81 -2.16,-7.13 32.637,-4.83 34.844,-11.62 -5.864,-2.8 -11.75,1.04 -17.446,1.93 0.246,-9.29 11.321,-7.49 15.493,-13.53 -6.055,-0.79 -11.985,0.29 -17.844,1.92 -3.766,-0.58 -9.016,1.25 -14.727,3.09 -6.461,2.07 -13.515,4.15 -19.679,2.72 9.242,-3.37 18.148,-7.54 27.089,-11.61 -12.539,3.18 -27.73,1.49 -39.312,7.63 -4.699,2.5 -8.106,4.94 -13.586,3.17 -1.41,-0.46 -4.352,0.1 -7.047,0.66 -2.586,0.54 -4.949,1.08 -5.543,0.72 -1.426,-0.89 28.422,-8.05 32.895,-9 7.183,-1.54 37.156,-3.34 30.664,-12.86 6.558,-0.75 12.898,-2.56 19.351,-3.86 -6.64,-7.76 20.356,-6.29 24.114,-6.87 12.07,-1.86 23.535,-6.15 33.957,-12.49 -3.36,0.51 -4.848,-0.76 -6.207,-2.03 -1.657,-1.55 -3.118,-3.1 -7.536,-1.41 -7.832,2.97 -4.941,3.91 -10.371,-0.52 -1.386,-1.13 -16.828,6.48 -19.57,7 -7.766,1.43 -16.23,2.13 -24.063,0.83 6.985,-2.06 20.458,-0.81 23.223,-9.68 -4.523,0 -9.023,0 -13.547,0 2.68,-5.53 0.614,-5.5 -2.133,-5.48 -2.054,0.02 -4.496,0.04 -5.621,-2.26 0.344,0.74 6.243,-1.27 3.879,-3.87 -6.523,0.55 -13.879,0.2 -19.355,-3.88 -0.41,2.93 -8.184,9.78 -11.211,7.36 -2.891,-2.32 -25.906,-3.63 -29.602,0.33 -8.047,8.58 -5.836,-2.51 -8.886,-5.99 -5.235,-5.98 -7.735,-4.3 -13.844,-2.5 -4.84,1.43 -9.785,0.61 -14.731,-0.21 -3.597,-0.59 -7.199,-1.19 -10.757,-0.92 -10.95,0.77 -18.832,6.06 -30.993,3.87 11.996,-4.74 24.657,-7.33 36.789,-11.61 -2.472,-3.19 -5.625,-2.2 -8.742,-1.21 -2.562,0.81 -5.105,1.63 -7.23,0.12 -6.188,-4.42 8.301,-6.47 9.297,-8.78 -0.239,0.58 -25.801,2.78 -30.114,4.06 -7.808,2.19 -17.117,13.35 -27.089,7.74 0.699,-6.27 20.824,-7.32 25.175,-15.48 -1.675,0.77 -7.422,4.77 -7.758,0 10.493,-3.17 21.536,-5.82 30.973,-11.62 -2.805,-0.68 -4.976,0.1 -7.16,0.88 -1.961,0.71 -3.934,1.41 -6.379,1.06 -3.887,-11.84 42.934,-5.31 40.633,-19.36 -5.285,-0.4 -40.711,4.06 -40.875,4.54 1.293,-3.65 12.246,-0.11 13.781,-6.47 -1.746,0.18 -3.035,-0.46 -3.871,-1.95 2.051,-0.26 17.699,-13.07 17.914,-12.55 -0.23,-0.6 -22.777,2.06 -24.375,2.96 -2.84,1.61 -4.558,1.34 -6.234,1.06 -1.664,-0.27 -3.282,-0.54 -5.907,1.03 -3.546,2.1 -12.089,6.93 -16.23,3.64 7.238,-0.1 9.621,-7.37 16.688,-9.29 8.152,-2.22 15.957,-6.02 22.015,-12.01 -4.035,0.56 -7.258,-0.73 -9.672,-3.87 2.09,-0.97 17.907,-5.22 13.551,-9.67 -5.715,4.56 -6.555,-1.85 -1.937,-3.88 -10.309,-0.69 -18.668,5.67 -28.715,6.12 -12.66,0.56 -23.328,12.81 -37.114,11.3 2.161,-1.35 6.325,-3.46 7.012,-6.18 -0.07,0.33 -25.871,6.18 -30.219,4.25 6.848,-6.01 16.434,-7.44 23.207,-13.55 -3.281,-0.16 -7.957,1.79 -12.781,3.74 -7.004,2.83 -14.328,5.65 -18.18,2.06 6.786,0.62 12.528,-2.89 22.633,-5.34 15.582,-3.78 33.125,-9.12 33.512,-15.95 -8.426,0.74 -20.387,8.14 -27.121,3.87 16.48,-7.2 44.879,-12.07 36.781,-13.55 -2.93,-3.46 -11.41,0.62 -14.773,1.2 -5.297,0.92 -5.379,-0.77 -5.617,-2.46 -0.231,-1.66 -0.61,-3.33 -6.317,-2.48 -3.887,0.57 -19.101,7.85 -19.75,-0.13 -5.519,1.23 -15.797,8.4 -21.281,3.87 2.476,0.42 4.359,-0.42 5.605,-2.56 0.266,-0.85 -3.539,-0.43 -8.062,0 -9.488,0.88 -22.156,1.77 -7.219,-9.05 11.395,-8.73 31.59,-7.85 34.848,-15.49 -7.422,-0.63 -14.614,1.88 -21.762,4.38 -8.836,3.09 -17.598,6.18 -26.637,3.37 0.844,-5.99 8.825,-5.63 9.676,-11.62 -6.957,0.16 -16.824,7.47 -23.23,1.94 7.5,-4.33 15.433,-7.84 23.23,-11.62 -12.336,-1.29 17.238,-13.28 19.988,-15.23 0.52,-4.15 -3.933,-4 -8.304,-3.85 -3.246,0.11 -6.446,0.22 -7.516,-1.43 -3.394,-10.2 49.938,-11.07 28.734,-27.88 4.415,0.23 8.29,-1.06 11.606,-3.88 -18.258,2.07 -33.992,12.08 -54.184,11.62 4.825,-5.25 13.715,-5.09 17.418,-11.62 -0.605,-0.24 -1.949,-0.07 -3.453,0.11 -2.922,0.34 -6.437,0.68 -6.23,-2.04 6.207,-3.73 13.238,-5.82 19.359,-9.68 -1.406,-0.25 -2.789,0.12 -4.059,0.49 -2.488,0.72 -4.558,1.44 -5.617,-2.42 6.953,-3.52 16.66,-4.58 21.289,-11.62 -2.172,-0.61 -4.754,0.21 -7.332,1.03 -3.816,1.21 -7.625,2.43 -10.086,-1.03 5.414,-4.36 15.161,-1.58 19.356,-7.73 -2.395,-2.63 -5.559,-4.14 -1.938,-7.75 -1.75,0.17 -3.437,-0.09 -5.05,-0.77 0.82,0.89 -0.497,-0.78 -1.93,-2.45 -1.34,-1.56 -2.785,-3.12 -2.699,-2.59 10.535,-3.86 20.07,-10 31.132,-12.43 11.415,-2.5 20.403,-10.32 31.907,-14.34 19.148,-6.68 39.84,-9.02 58.898,-15.42 7.551,-2.55 13.637,-8.43 21.137,-11.37 12.41,-4.87 25.43,-8.05 37.937,-12.7 6.438,-2.39 15.039,-5.13 20.664,-9.13 8.665,0 10.907,0.92 18.915,-2.86 12.406,-5.86 25.812,-10.93 38.148,-16.93 10.047,-5.02 19.82,-12.08 30.398,-16.06 34.7,-13.03 61.145,-47.74 71.778,-83.197 6.777,-22.585 6.98,-50.757 -2.196,-72.671 -8.632,-20.559 -23.515,-38.332 -32.597,-57.852 -4.387,-9.437 -10.508,-13.488 -16.41,-21.531 -4.286,-5.856 -7.84,-19.926 -15.477,-22.27 -2.637,-0.801 -9.141,-10.195 -12.527,-12.578 -9.172,-6.473 -17.739,-15.723 -26.196,-23.215 -5.554,-5.261 -14.644,-12.449 -21.277,-17.429 -4.609,-3.536 -9.434,-2.872 -13.711,-7.461 -3.953,-4.231 -7.441,-8.078 -12.148,-11.532 -20.403,-14.972 -43.426,-25.519 -66.289,-36.054 -29.493,-13.586 -61.731,-23.379 -94.207,-28.391 0.773,-3.078 -3.473,-2.59 -7.664,-2.101 -2.032,0.238 -4.051,0.472 -5.477,0.304 -7.328,-0.82 -14.652,-1.426 -21.93,-1.738 -28.613,-1.328 -56.976,-2.793 -85.597,-3.086 -3.536,-0.031 -7.055,0.059 -10.563,0.148 -8.902,0.231 -17.723,0.461 -26.551,-1.339 -5.781,-3.43 -12.949,-2.211 -20.043,-0.989 -6.879,1.188 -13.683,2.371 -19.097,-0.679 12.425,-0.852 24.375,-3.938 36.789,-4.934 16.808,-1.492 33.527,1.055 50.316,1.055 13.883,0 27.68,-1.328 41.539,-1.817 2.531,-0.086 5.742,0.524 9.117,1.133 7.336,1.324 15.442,2.652 19.024,-3.183 -4.961,-0.918 -7.496,-3.731 -11.496,-5.586 -4.727,-2.176 -10.938,-3.36 -17.5,-3.575 -13.156,-0.429 -26.242,-0.742 -39.379,-1.523 -25.094,-1.484 -51.867,-7.012 -76.793,-6.727 -11.766,0.082 -23.535,-0.773 -35.301,-1.629 -11.32,-0.824 -22.644,-1.648 -33.961,-1.636 -11.82,0 -49.996,6.957 -60.426,-0.614 1.993,-0.398 4.821,-0.07 7.805,0.258 5.234,0.571 10.949,1.145 13.484,-2.183 -16.988,-1.258 -33.73,-3.985 -50.332,-7.743 15.282,-6.613 8.008,-7.851 -6.726,-10.167 -6.274,-0.985 -41.735,-9.278 -44.516,-6.766 3.227,-2.91 17.824,-1.262 21.75,0.09 4.668,1.586 8.977,0.718 13.27,-0.149 4.035,-0.812 8.054,-1.625 12.355,-0.41 0.992,-12.312 21.899,-5.058 29.031,-9.687 -0.527,0.132 -5.441,-1.387 -10.187,-2.907 -4.668,-1.496 -9.172,-2.992 -9.172,-2.914 6.027,-4.73 14.961,-2.828 23.738,-0.925 9.875,2.14 19.547,4.281 24.657,-3.02 -3.727,-2.754 -8.543,-2.227 -13.344,-1.703 -5.02,0.551 -10.024,1.098 -13.766,-2.086 38.653,-2.227 77.426,-4.16 116.121,-2.734 8.391,0.324 11.828,2.011 16.457,-2.832 3.504,-3.672 10.457,-2.415 13.754,0.507 4.321,3.848 7.289,3.028 12.871,2.246 3.118,-0.437 5.903,-0.101 8.27,0.231 5.453,0.769 8.703,1.543 8.703,-7.106 3.84,0.887 12.461,4.825 13.535,-2.011 -10.703,-3.684 -26.289,-3.867 -36.621,-3.926 -2.633,0.137 -3.32,-1.094 -2.101,-3.738 5.316,0.418 10.632,0.672 15.929,0.75 9.426,0.175 18.828,2.304 28.223,2.031 7.738,0.019 3.59,-2.441 5.387,-2.5 15.031,-0.488 30.671,1.512 46.414,3.512 21.168,2.687 42.515,5.375 62.785,2.015 -7.977,-15.476 -42.27,-15.347 -63.621,-15.218 -4.223,0.023 -7.938,0.05 -10.84,-0.043 -8.359,-0.266 -16.863,-2.778 -25.5,-2.668 -6.098,0.078 -12.399,2.89 -18.113,2.441 -6.239,-0.566 -11.325,-4.668 -17.422,-5.801 -2,-0.398 -4.387,-0.148 -6.817,0.098 -4.957,0.508 -10.101,1.015 -12.543,-3.965 6.914,2.426 8.543,1.461 13.184,0.5 3.875,-0.809 9.855,-1.621 22.781,-0.441 10.336,5.129 25.434,0.242 35.649,-3.938 -15.192,-4.383 -25.336,-15.531 -41.668,-18.101 -15.321,-2.411 -28.789,-9.469 -43.801,-12.192 -31.035,-5.629 -116.52,-15.668 -102.293,-4.558 5.269,1.781 6.336,1.761 9.101,4.171 -15.496,-2.82 -30.585,-4.761 -46.281,-6.031 -3.824,-3.691 -11.219,-3.078 -18.601,-2.48 -3.664,0.3 -7.328,0.601 -10.547,0.371 -14.43,-4.84 -54.875,-3.41 -65.379,-6.563 -0.234,-0.968 2.488,-0.918 5.726,-0.879 4.262,0.063 9.411,0.121 9.84,-2.14 -9.531,-2.449 -19.273,-2.321 -29.023,-2.199 -6.223,0.082 -12.445,0.16 -18.617,-0.43 -20.121,-1.918 4.711,-2.961 -0.758,-8.988 -0.902,-0.102 -2.813,-0.09 -5.199,-0.071 -7.676,0.039 -20.266,0.09 -19.969,-3.801 18.543,3.68 40.23,2.301 58.086,-3.851 -2.86,-3.688 -8.653,-3.969 -12.766,-4.699 -8.383,-1.508 -1.25,-7.7 -6.601,-8.86 -7.051,-1.179 -13.004,-4.738 -19.352,-7.75 -5.625,-0.55 -12.508,-0.55 -17.43,-3.871 5.887,-2.687 -5.734,-3.301 -5.804,-5.89 1.179,-0.278 3.226,-0.008 5.457,0.25 4.176,0.5 9.004,0.992 10.039,-2.09 -0.946,-0.598 -3.219,-1.707 -5.895,-3.028 3.692,-6.543 -9.215,-3.382 -14.039,-6.98 0.719,-4.242 -3.254,-4.199 -7.281,-4.152 -3.719,0.043 -7.481,0.082 -7.629,-3.258 3.68,-1.082 7.75,-0.211 11.77,0.66 4.554,1 9.05,1.988 12.836,0.129 9.648,-4.758 -10.153,-6.789 -11.067,-8.531 16.59,-2.36 -1.527,-3.977 0,-11.629 1.164,-0.192 2.754,0.48 4.399,1.16 2.89,1.18 5.953,2.371 7.214,-1.16 -3.129,-2.739 -9.843,-1.309 -11.613,-5.809 2.621,-0.199 6.692,0.231 5.809,-3.941 -5.317,0.41 -13.063,0.25 -15.481,-5.75 30.508,4.019 62.078,2.968 92.832,5.781 28.367,2.578 60.563,7.859 89.086,7.98 2.539,0.008 4.879,-0.293 3.918,-2.14 7.27,-4.172 -26.734,-1.153 -33.281,-8.219 9.773,1.199 19.851,4.887 29.402,0.477 -10.097,-3.168 -18.937,-10.477 -30.16,-8.289 -15.254,2.992 -28.586,2.371 -43.5,-0.829 -7.641,-1.64 -15.387,-1.441 -23.195,-1.23 -6.215,0.16 -12.469,0.32 -18.746,-0.449 -14.981,-1.852 -29.942,-2.922 -45.071,-2.821 0.93,-6.05 5.289,-5.242 9.864,-4.441 3.535,0.621 7.195,1.25 9.5,-1.289 -6.239,-2.07 -12.86,-4.68 -17.414,-9.68 5.558,-0.121 11.254,1.309 16.968,2.75 8.637,2.16 17.313,4.328 25.602,1.117 -5.399,-12.617 -21.844,-5.218 -29.027,-15.468 2.046,-0.41 4.988,0.07 8.031,0.55 4.355,0.68 8.914,1.372 11.324,-0.55 -0.238,-6.348 -8.523,-4.16 -11.617,-7.758 7.574,-3.961 16.48,0.957 5.812,-9.672 3.043,-0.691 8.368,-0.059 14.184,0.578 11.449,1.242 24.812,2.492 26.465,-6.398 -6.656,1.511 -13.598,0.672 -20.332,0.3 -11.559,-0.648 -6.969,-4.16 -0.121,-3.968 5.8,0.16 1.746,-6.071 -1.477,-7.063 -5.039,-1.488 -15.902,1.153 -18.719,-4.75 4.825,-1.199 7.11,1.93 11.606,1.93 -4.195,-6.828 -2.047,-8.367 6.441,-4.629 5.594,0.531 11.203,0.762 16.824,0.68 14.207,-0.149 28.36,-1.7 42.559,-1.848 9.82,-0.152 19.445,0.379 29.047,0.898 11.902,0.661 23.777,1.309 35.969,0.68 20.117,-1 43.824,0.449 63.828,2.988 8.121,1.032 51.816,10.922 53.109,-4.566 -1.66,-1.801 -4.301,-1.422 -7.125,-1.043 -2.855,0.391 -5.894,0.77 -8.305,-1.09 -5.832,-4.558 -17.777,-1.738 -24.511,-1.437 -6.211,0.289 -42.266,-3.032 -43.285,-9.992 19.957,1.468 36.906,-0.45 56.48,4.832 5.77,1.558 5.871,0.16 6.266,-1.25 0.297,-1.063 0.758,-2.122 3.972,-1.903 8.133,0.59 15.192,1.942 22.957,4.512 9.375,3.148 17.344,3.891 27.192,3.418 2.668,-0.117 6.738,1.152 10.918,2.422 5.761,1.758 11.734,3.508 14.527,1.609 1.219,-0.808 6.406,0.762 10.078,1 11.035,0.809 26.762,2.84 29.567,6.68 -5.352,3.109 -10.192,1.801 -16.164,0.488 -3.719,-0.808 -7.879,-1.629 -12.879,-1.379 -7.207,-1.719 -10.2,-10.437 -15.637,-1.738 -0.66,1.051 -4.035,6.289 0.144,4.559 5.336,-0.11 8.594,1.281 11.204,6.011 1.648,7.629 3.976,5.239 7.402,2.848 1.695,-1.188 3.66,-2.367 5.945,-2.34 0.434,3.652 1.094,11.512 8.496,7 7.914,4.043 21.598,3.883 28.426,7.691 5.789,3.258 13.473,1.29 19.832,4.43 9.801,4.84 19.246,5.559 29.375,9.11 7.563,2.671 14.008,7.769 22.188,8.269 10.902,0.711 14.422,9.121 28.773,7.41 19.07,-2.269 27.695,14.891 44.5,18.821 8.957,5.339 29.848,10.199 45,14.402 18.422,5.117 34.942,16.047 52.774,22.808 8.195,3.008 10.5,2.559 17.414,7.739 2.402,5.761 8.027,4.883 14.511,8.011 4.258,1.61 7.918,5.75 15.293,6.301 5.598,0.41 20.469,8.051 24.395,5.039 -9.18,-10.449 -22.332,-15.98 -34.485,-22.07 -15.855,-7.891 -30.425,-18.809 -47.371,-24.391 -10.664,-3.519 -21.308,-12.429 -32.246,-17.918 -14.218,-7.152 -31.57,-14.929 -47.578,-16.519 -0.066,3.359 10.078,10.09 6.824,11.226 -5.562,-4.609 -12.039,-8.007 -18.687,-10.738 -16.32,-6.719 -33.801,-9.89 -50.399,-15.808 -6.925,-2.473 -13.769,-5.411 -19.941,-9.481 -2.93,-1.902 -5.648,-4.09 -8.148,-6.57 -5.512,-5.449 -9.942,-3.492 -17.172,-6.11 -6.809,-2.461 -12.742,-1.761 -19.215,-3.652 -4.965,-4.117 -23.852,-5.82 -27.094,-9.59 8.551,0.653 18.156,3.262 27.262,4.199 8.269,0.821 16.121,0 22.406,0.883 12.719,2.918 32.981,13.879 42.871,5.938 -8.148,-4.18 -36.594,-4.797 -34.472,-16.84 12.597,4.402 24.273,5.332 36.281,11.422 7.808,1.25 27.765,10.597 32.758,8.328 3.488,-1.609 8.234,1.41 14.875,4.441 5.605,2.551 12.558,5.102 21.246,4.871 10.789,0.18 28.293,12.969 38.086,9.668 -2,0 -12.864,-7.949 -13.496,-9.769 -1.614,-4.481 26.511,8.379 28.378,8.961 12.317,3.687 30.391,12.82 37.383,10.48 -0.652,-4.59 -5.871,-4.179 -7.746,-7.742 16.899,4.633 31.36,15.672 46.367,24.461 14.68,8.57 32.27,13.84 45.637,19.559 13.691,7.621 26.055,17.621 39.805,24.793 6.633,3.457 38.23,22.808 44.348,20.238 -3.801,-7.129 -13.95,-16.231 -21.829,-18.789 -6.816,-2.192 -13.593,-9.09 -20.761,-13.34 -2.872,-1.762 -34.661,-17.539 -30.965,-22.07 3.758,4.98 8.804,5.679 13.836,8.507 6.953,3.821 10.195,7.743 17.382,11.332 13.536,6.782 31.614,17.418 44.257,25.641 21.51,13.27 41.2,32.758 58.85,50.399 3.75,3.75 7.42,6.089 10.99,9.929 8.45,9.071 21.13,20.18 32.5,31.199 7.97,7.692 12.12,11.243 15,19.043 2.52,6.856 11.87,0.821 9.17,-4.171 -2.48,-4.551 -6.98,-6.532 -6.49,-12.508 -6.42,-2.09 -27.78,-20.551 -20.71,-28.653 3.97,13.282 13.46,18.653 22.78,28.352 1.51,4.539 7.93,8.699 11.86,12.34 -0.93,6.144 0.99,14.367 5.41,15.051 10.79,-0.723 12.53,0.761 7.68,6.691 0,-0.012 -2.12,0.918 -0.49,2.703 3.97,4.453 13.86,11.348 12.04,17.481 -1.18,0.039 -1.99,-0.895 -2.79,-1.829 -0.85,-0.996 -1.69,-1.992 -2.95,-1.804 -11.85,1.777 2.26,6.719 3.59,7.109 6.82,1.992 5.98,3.067 5.98,11.055 0,7.519 14.62,20.918 14.62,28.222 2.02,-1.171 4.46,-3.835 6.3,-5.292 1.28,2.468 1.08,7.226 2.34,9.648 10.2,19.402 21.2,34.062 31.65,52.156 3.21,5.578 8.35,13.547 12.28,17.133 0.15,3.602 1.68,5.828 4.58,6.648 -0.69,4.395 -0.08,5.606 1.08,8.79 0.75,1.894 8.3,21.816 12.49,17.355 8.74,-12.922 -13.3,-44.648 -19.06,-56.848 -2.85,-6.047 -30.88,-46.511 -27.39,-49.543 0.54,1.633 1.19,1.633 1.94,0 -3.05,-2.605 -20.27,-8.562 -17.97,-16.179 1.13,-3.77 -17.51,-15.645 -5.45,-17.598 0.58,5.391 10.56,12.07 9.82,18.367 11.81,7.883 18.39,17.387 24.68,27.199 6.22,9.688 9.09,23.645 16.15,33.965 1.76,3.047 1.98,5.977 3.77,9.395 6.19,11.836 13.96,25.683 19.34,36.347 0.24,-5.566 -5.83,-19.238 0,-23.75 6.38,9.407 6.17,24.727 17.3,30.196 1.65,12.715 17.29,24.258 15.61,35.644 0.53,-2.859 -0.46,-4.648 -2.99,-5.332 -6.36,0.196 -1.95,10.215 -1.02,12.637 4.47,11.367 6.82,22.18 17.93,29.453 -0.86,10.449 8.83,15.254 11.83,23.848 4.42,12.707 13,16.097 13,30.586 3.79,0.468 9.38,13.023 9.32,1.511 -0.06,-12.437 -6.22,-28.179 -11.84,-39.402 -5.12,-10.254 -9.49,-20.703 -13.95,-31.238 -4.39,-10.324 -16.52,-23.84 -10.68,-35.625 1.4,9.304 5.66,24.676 14.04,31.922 0.96,0.832 1.82,0.754 2.76,0.679 0.77,-0.066 1.59,-0.129 2.56,0.309 -0.26,-2.512 -6.57,-9.953 -1.94,-11.613 7.2,14.66 5.52,28.672 18.09,36.777 2.78,13.801 6.78,30.699 14.83,42.578 -6,-0.754 -9.38,-30.527 -17.43,-25.168 2.74,20.153 9.96,42.942 16.41,62.297 0.76,3.852 0.84,7.789 3.78,10.328 -2.07,5.738 -0.9,11.098 0.5,16.891 2.67,10.945 9.83,23.937 8.35,34.375 -2.43,-2.231 -2.59,-9.785 -7.83,-8.414 -1.02,9.668 5.83,20.754 2.63,30.406 -1.3,3.937 -1.67,16.141 7.14,16.727 -0.26,-2.848 -1.27,-3.297 1.57,-3.028 -0.51,28.233 3.68,45.633 2.29,68.843 m 9.68,0 c -0.16,6.29 -0.96,11.85 -3.87,15.48 -0.33,-6.77 0.56,-12.41 3.87,-15.48 m 1.94,-42.59 c 1.78,7.74 3.96,20.08 -1.94,25.17 1.45,-8.63 -6.94,-21.21 1.94,-25.17 M 265.094,449.84 c -0.813,-5.578 -13.258,-4.77 -20.86,-3.961 -3.351,0.359 -5.761,0.711 -5.812,0.519 0.086,0.313 18.902,4.301 26.672,3.442 m 27.101,0 c -6.39,2.64 2.934,8.422 10.407,5.48 9.804,2.762 25.55,6.45 30.253,2.239 -11.308,-4.739 -23.324,-8.848 -40.66,-7.719 M 388.984,417 c 3.848,-8.699 -30.656,-10.539 -36.636,-8.398 4.84,4.757 -4.477,5.136 -6.801,6.046 -3.793,3.532 7.051,5.293 14.652,4.184 13.082,2.098 28.274,1.688 28.785,-1.832 m 269.051,5.82 c 0.949,-0.16 1.887,-0.3 2.824,-0.441 1.993,-1.828 -19.293,-12.039 -21.972,-13.359 -2.418,-1.18 -13.926,-2.43 -13.41,-6.168 0.226,-1.551 5.136,-6.122 1.601,-7.153 -4.68,-3.629 -11.074,-3.258 -17.418,-2.89 -4.496,0.261 -8.965,0.523 -12.773,-0.649 -4.985,-1.512 -6.383,-2.949 -7.141,-7.558 -0.449,-2.832 -12.73,-6.301 -15.859,-8.043 -8.414,-4.688 -18.258,-2.457 -27.024,-6.039 -6.121,-2.52 -13.472,-3.872 -20.84,-5.27 -13.796,-2.66 -27.527,-5.762 -41.398,-8.109 -11.93,-1.969 -41.523,-11.032 -52.445,-5.539 -0.157,0.078 4.035,5.5 3.265,7.32 -14.875,-0.633 -34.652,-3.262 -49.57,-2.223 3.52,5.781 63.465,18.641 65.047,16.66 5.492,-1.3 10.41,0.172 14.625,1.641 3.371,1.172 6.289,2.34 8.699,2.109 7.254,2.461 14.668,2.403 22.098,2.332 6.469,-0.05 12.949,-0.109 19.347,1.5 6.235,1.579 12.184,3.61 18.469,0.739 3.848,3.968 10.278,3.941 15.281,5.23 7.313,3.551 23.539,9.352 33.778,8.629 7.062,0.223 8.828,3.77 9.828,5.512 3.23,5.57 14.312,3.609 20.094,4.937 15.672,3.602 30.289,10.25 44.894,16.832 m 193.574,-19.39 c 7.844,-1.649 -8.164,-7.41 -7.73,-11.598 -5.527,2.219 -12.902,-1.133 -16.926,-4.652 -3.828,-1.27 -8.144,-0.18 -12.109,0.781 4.297,8.551 25.105,9.027 36.765,15.469 m 80.442,43.992 c 9.219,4.148 18.847,7.828 27.969,12.168 -19.961,-17.008 -42.586,-30.539 -65.821,-42.59 -13.574,6.719 28.633,26.27 31.563,27.641 l 6.289,2.781 m 27.969,12.168 c 0.773,1.75 1.519,1.16 1.343,0.57 -0.097,-0.332 -0.492,-0.672 -1.343,-0.57 m 174.21,116.129 c 7.98,-2.41 -0.73,-5.625 -1.94,-9.668 -11.21,1.855 1.9,6.387 1.94,9.668"
         inkscape:connector-curvature="0" /></clipPath><clipPath
       id="clipPath26"
       clipPathUnits="userSpaceOnUse"><path
         id="path24"
         d="m 383.184,310.52 c 0.98,6.679 34.293,10.011 42.418,10.011 0.332,0 0.625,-0.011 0.867,-0.019 3.793,-0.172 9.238,-1.141 14.312,-1.141 3.938,0 7.653,0.59 10.199,2.578 1.411,1.09 3.04,1.41 4.719,1.41 1.188,0 2.403,-0.16 3.586,-0.32 1.184,-0.16 2.332,-0.32 3.391,-0.32 1.472,0 2.769,0.312 3.734,1.363 -0.555,6.656 -8.941,8.629 -18.976,8.629 -13.305,0 -29.504,-3.473 -34.133,-4.063 -15.664,-1.988 -33.598,-3.308 -50.301,-3.308 -4.629,0 -9.16,0.101 -13.527,0.32 -3.5,0.18 -6.973,0.262 -10.43,0.262 -8.582,0 -17.055,-0.473 -25.539,-0.942 -8.488,-0.46 -16.988,-0.929 -25.629,-0.929 -1.137,0 -2.277,0.008 -3.418,0.031 -14.199,0.148 -28.352,1.699 -42.559,1.848 -0.703,0.011 -1.406,0.019 -2.109,0.019 -4.914,0 -9.82,-0.238 -14.715,-0.699 -3.004,-1.32 -5.215,-1.988 -6.629,-1.988 -2.586,0 -2.523,2.207 0.188,6.617 -3.774,0 -5.988,-2.199 -9.453,-2.199 -0.664,0 -1.375,0.082 -2.153,0.269 2.817,5.903 13.68,3.262 18.719,4.75 3.184,0.981 7.176,7.063 1.688,7.063 -0.071,0 -0.141,0 -0.211,0 -0.188,0 -0.368,-0.012 -0.551,-0.012 -6.531,0 -10.574,3.352 0.672,3.98 3.812,0.211 7.691,0.571 11.551,0.571 2.953,0 5.894,-0.211 8.781,-0.871 -1.074,5.769 -7.082,7.269 -14.297,7.269 -3.899,0 -8.152,-0.437 -12.168,-0.871 -4.02,-0.437 -7.801,-0.879 -10.758,-0.879 -1.324,0 -2.484,0.09 -3.426,0.301 10.668,10.629 1.762,5.711 -5.812,9.672 3.094,3.598 11.379,1.41 11.617,7.758 -1.176,0.929 -2.859,1.25 -4.781,1.25 -2.024,0 -4.313,-0.348 -6.543,-0.7 -2.235,-0.359 -4.418,-0.71 -6.231,-0.71 -0.652,0 -1.257,0.05 -1.8,0.16 7.183,10.25 23.628,2.851 29.027,15.468 -3.024,1.184 -6.102,1.633 -9.207,1.633 -5.41,0 -10.91,-1.383 -16.395,-2.75 -5.488,-1.383 -10.961,-2.761 -16.312,-2.761 -0.219,0 -0.438,0 -0.656,0.011 4.554,5 11.175,7.61 17.414,9.68 -1.282,1.41 -2.985,1.84 -4.852,1.84 -1.488,0 -3.082,-0.27 -4.648,-0.551 -1.571,-0.281 -3.114,-0.551 -4.5,-0.551 -2.66,0 -4.754,1.012 -5.364,4.992 0.633,-0.011 1.266,-0.011 1.899,-0.011 14.484,0 28.82,1.058 43.172,2.832 3.668,0.449 7.324,0.578 10.972,0.578 2.598,0 5.188,-0.07 7.774,-0.129 2.586,-0.07 5.164,-0.141 7.73,-0.141 5.196,0 10.356,0.27 15.465,1.371 8.32,1.789 16.149,2.77 24.09,2.77 6.297,0 12.668,-0.621 19.41,-1.941 1.422,-0.282 2.805,-0.399 4.16,-0.399 9.324,0 17.184,5.918 26,8.688 -3.383,1.562 -6.836,2.113 -10.312,2.113 -6.34,0 -12.781,-1.813 -19.09,-2.59 6.547,7.066 40.551,4.047 33.281,8.219 0.945,1.82 -1.308,2.14 -3.801,2.14 -0.039,0 -0.078,0 -0.117,0 -28.523,-0.121 -60.719,-5.402 -89.086,-7.98 -30.754,-2.813 -62.324,-1.762 -92.832,-5.781 1.953,4.851 7.395,5.879 12.215,5.879 1.141,0 2.246,-0.059 3.266,-0.129 0.883,4.172 -3.188,3.742 -5.809,3.941 1.77,4.5 8.484,3.07 11.613,5.809 -0.629,1.761 -1.707,2.351 -2.984,2.351 -1.289,0 -2.781,-0.601 -4.23,-1.191 -1.45,-0.602 -2.856,-1.192 -3.965,-1.192 -0.149,0 -0.293,0.012 -0.434,0.032 -1.527,7.652 16.59,9.269 0,11.629 0.914,1.742 20.715,3.773 11.067,8.531 -1.555,0.762 -3.227,1.039 -4.973,1.039 -2.512,0 -5.176,-0.578 -7.863,-1.168 -2.692,-0.582 -5.403,-1.16 -8,-1.16 -1.289,0 -2.551,0.14 -3.77,0.5 0.133,2.969 3.137,3.269 6.422,3.269 0.398,0 0.805,-0.011 1.207,-0.011 0.402,-0.008 0.805,-0.008 1.203,-0.008 3.57,0 6.723,0.347 6.078,4.16 4.824,3.598 17.731,0.437 14.039,6.98 2.676,1.321 4.949,2.43 5.895,3.028 -0.649,1.941 -2.793,2.461 -5.332,2.461 -1.508,0 -3.153,-0.18 -4.707,-0.371 -1.555,-0.18 -3.02,-0.368 -4.16,-0.368 -0.5,0 -0.942,0.039 -1.297,0.118 0.07,2.589 11.691,3.203 5.804,5.89 4.922,3.321 11.805,3.321 17.43,3.871 6.348,3.012 12.301,6.571 19.352,7.75 5.351,1.16 -1.782,7.352 6.601,8.86 4.113,0.73 9.906,1.011 12.766,4.699 -11.289,3.891 -24.113,5.871 -36.703,5.871 -7.325,0 -14.567,-0.668 -21.383,-2.02 -0.266,3.469 9.766,3.809 17.379,3.809 0.906,0 1.777,-0.008 2.59,-0.008 0.82,-0.011 1.582,-0.011 2.265,-0.011 1.313,0 2.34,0.019 2.934,0.082 5.469,6.027 -19.363,7.07 0.758,8.988 4.058,0.39 8.136,0.48 12.222,0.48 2.129,0 4.262,-0.019 6.395,-0.05 2.133,-0.032 4.262,-0.051 6.39,-0.051 7.61,0 15.188,0.34 22.633,2.25 -0.359,1.902 -4.043,2.16 -7.742,2.16 -0.707,0 -1.414,-0.008 -2.098,-0.02 -0.683,-0.007 -1.347,-0.007 -1.964,-0.007 -2.293,0 -3.946,0.128 -3.762,0.886 10.504,3.153 50.949,1.723 65.379,6.563 0.789,0.058 1.601,0.078 2.441,0.078 2.574,0 5.34,-0.219 8.106,-0.449 2.769,-0.231 5.539,-0.45 8.125,-0.45 4.3,0 8.086,0.629 10.476,2.93 15.696,1.27 30.785,3.211 46.281,6.031 -2.765,-2.41 -3.832,-2.39 -9.101,-4.171 -4.66,-3.641 1.375,-5.008 12.687,-5.008 23.239,0 68.735,5.777 89.606,9.566 15.012,2.723 28.48,9.781 43.801,12.192 16.332,2.57 26.476,13.718 41.668,18.101 -7.086,2.899 -16.524,6.141 -25.086,6.141 -3.785,0 -7.399,-0.633 -10.563,-2.203 -4.679,-0.43 -8.445,-0.59 -11.535,-0.59 -5.445,0 -8.773,0.511 -11.246,1.031 -2.477,0.512 -4.094,1.031 -6.113,1.031 -1.77,0 -3.844,-0.402 -7.071,-1.531 1.7,3.465 4.707,4.273 8.051,4.273 1.461,0 2.985,-0.152 4.492,-0.308 1.504,-0.152 2.996,-0.309 4.387,-0.309 0.852,0 1.668,0.059 2.43,0.211 6.097,1.133 11.183,5.235 17.422,5.801 0.421,0.031 0.847,0.051 1.273,0.051 5.371,0 11.191,-2.418 16.84,-2.492 0.18,-0.004 0.359,-0.004 0.543,-0.004 8.449,0 16.769,2.41 24.957,2.672 1.57,0.05 3.383,0.066 5.383,0.066 1.691,0 3.519,-0.012 5.457,-0.023 1.937,-0.012 3.976,-0.024 6.101,-0.024 21.254,0 50.27,1.172 57.52,15.242 -6.758,1.121 -13.633,1.571 -20.582,1.571 -13.899,0 -28.09,-1.793 -42.203,-3.586 -14.118,-1.793 -28.149,-3.586 -41.739,-3.586 -1.562,0 -3.125,0.023 -4.675,0.074 -1.789,0.059 2.324,2.5 -5.293,2.5 -0.032,0 -0.063,0 -0.094,0 -0.567,0.016 -1.129,0.023 -1.695,0.023 -8.832,0 -17.672,-1.89 -26.528,-2.054 -5.297,-0.078 -10.613,-0.332 -15.929,-0.75 -1.157,2.511 -0.594,3.75 1.722,3.75 0.121,0 0.246,-0.004 0.379,-0.012 10.332,0.059 25.918,0.242 36.621,3.926 -0.476,3.031 -2.437,3.945 -4.804,3.945 -2.977,0 -6.594,-1.437 -8.731,-1.934 0,6.176 -1.656,7.547 -4.59,7.547 -1.176,0 -2.554,-0.218 -4.113,-0.441 -1.559,-0.219 -3.297,-0.441 -5.191,-0.441 -0.989,0 -2.012,0.062 -3.079,0.21 -2.32,0.325 -4.187,0.657 -5.89,0.657 -2.391,0 -4.457,-0.657 -6.981,-2.903 -1.859,-1.648 -4.89,-2.769 -7.804,-2.769 -2.246,0 -4.422,0.664 -5.95,2.262 -2.597,2.718 -4.82,3.378 -7.75,3.378 -2.293,0 -5.023,-0.406 -8.707,-0.546 -9.211,-0.34 -18.429,-0.489 -27.648,-0.489 -29.504,0 -59.024,1.528 -88.473,3.223 2.309,1.965 5.098,2.508 8.071,2.508 1.847,0 3.769,-0.211 5.695,-0.422 1.922,-0.207 3.844,-0.418 5.699,-0.418 2.781,0 5.41,0.473 7.645,2.121 -2.676,3.824 -6.606,5.059 -11.161,5.059 -4.14,0 -8.796,-1.02 -13.496,-2.039 -4.703,-1.016 -9.449,-2.036 -13.765,-2.036 -3.746,0 -7.172,0.766 -9.969,2.957 h 0.004 c 0.219,0 4.613,1.457 9.164,2.918 4.551,1.457 9.258,2.914 10.102,2.914 0.039,0 0.066,-0.003 0.085,-0.007 -7.132,4.629 -28.039,-2.625 -29.031,9.687 -1.578,-0.445 -3.117,-0.617 -4.633,-0.617 -2.621,0 -5.168,0.512 -7.722,1.027 -2.551,0.516 -5.11,1.032 -7.742,1.032 -1.797,0 -3.633,-0.243 -5.528,-0.883 -2.324,-0.801 -8.394,-1.703 -13.629,-1.703 -3.601,0 -6.804,0.425 -8.121,1.613 0.364,-0.328 1.281,-0.473 2.621,-0.473 8.914,0 36.442,6.383 41.895,7.239 14.734,2.316 22.008,3.554 6.726,10.167 16.602,3.758 33.344,6.485 50.332,7.743 -1.562,2.054 -4.335,2.621 -7.46,2.621 -1.942,0 -4.016,-0.219 -6.024,-0.438 -2.004,-0.218 -3.941,-0.441 -5.598,-0.441 -0.808,0 -1.554,0.055 -2.207,0.183 3.676,2.668 10.797,3.532 18.996,3.532 15.067,0 33.774,-2.918 41.43,-2.918 0.094,0 0.192,0 0.285,0 11.223,0 22.45,0.82 33.676,1.636 11.227,0.817 22.453,1.633 33.676,1.633 0.543,0 1.086,-0.004 1.625,-0.004 0.621,-0.007 1.242,-0.011 1.867,-0.011 24.391,0 50.457,5.293 74.926,6.738 13.137,0.781 26.223,1.094 39.379,1.523 6.562,0.215 12.773,1.399 17.5,3.575 4,1.855 6.535,4.668 11.496,5.586 -2.039,3.324 -5.551,4.324 -9.547,4.324 -3.02,0 -6.32,-0.571 -9.477,-1.141 -3.16,-0.57 -6.175,-1.141 -8.625,-1.141 -0.168,0 -0.332,0.004 -0.492,0.008 -13.859,0.489 -27.656,1.817 -41.539,1.817 -12.984,0 -25.922,-1.524 -38.898,-1.524 -3.801,0 -7.61,0.129 -11.418,0.469 -12.414,0.996 -24.364,4.082 -36.789,4.934 2.55,1.437 5.41,1.933 8.441,1.933 3.402,0 7.02,-0.625 10.656,-1.254 3.633,-0.625 7.289,-1.25 10.77,-1.25 3.305,0 6.457,0.567 9.273,2.239 5.856,1.195 11.703,1.496 17.578,1.496 2.985,0 5.973,-0.078 8.973,-0.157 3.008,-0.078 6.02,-0.156 9.047,-0.156 0.504,0 1.012,0.004 1.516,0.008 28.621,0.293 56.984,1.758 85.597,3.086 7.278,0.312 14.602,0.918 21.93,1.738 0.336,0.039 0.707,0.059 1.102,0.059 1.277,0 2.824,-0.184 4.375,-0.363 1.55,-0.18 3.109,-0.364 4.417,-0.364 2.231,0 3.735,0.528 3.247,2.465 32.476,5.012 64.714,14.805 94.207,28.391 22.863,10.535 45.886,21.082 66.289,36.054 4.707,3.454 8.195,7.301 12.148,11.532 4.277,4.589 9.102,3.925 13.711,7.461 6.633,4.98 15.723,12.168 21.277,17.429 8.457,7.492 17.024,16.742 26.196,23.215 3.386,2.383 9.89,11.777 12.527,12.578 7.637,2.344 11.191,16.414 15.477,22.27 5.902,8.043 12.023,12.094 16.41,21.531 9.082,19.52 23.965,37.293 32.597,57.852 9.176,21.914 8.973,50.086 2.196,72.671 -10.633,35.457 -37.078,70.167 -71.778,83.197 -10.578,3.98 -20.351,11.04 -30.398,16.06 -12.336,6 -25.742,11.07 -38.148,16.93 -5.387,2.55 -8.168,2.96 -12.051,2.96 -1.883,0 -4.032,-0.1 -6.864,-0.1 -5.625,4 -14.226,6.74 -20.664,9.13 -12.507,4.65 -25.527,7.83 -37.937,12.7 -7.5,2.94 -13.586,8.82 -21.137,11.37 -19.058,6.4 -39.75,8.74 -58.898,15.42 -11.504,4.02 -20.492,11.84 -31.907,14.34 -11.007,2.42 -20.503,8.51 -30.972,12.37 0.406,0.24 1.504,1.45 2.539,2.65 0.891,1.04 1.73,2.08 2.051,2.5 1.257,0.51 2.566,0.77 3.91,0.77 0.336,0 0.676,-0.02 1.019,-0.05 -3.621,3.61 -0.457,5.12 1.938,7.75 -4.195,6.15 -13.942,3.37 -19.356,7.73 1.204,1.7 2.735,2.27 4.426,2.27 1.766,0 3.711,-0.63 5.66,-1.24 1.946,-0.62 3.895,-1.24 5.668,-1.24 0.575,0 1.133,0.06 1.664,0.21 -4.629,7.04 -14.336,8.1 -21.289,11.62 0.641,2.33 1.649,2.99 2.891,2.99 0.82,0 1.738,-0.29 2.726,-0.57 0.985,-0.29 2.036,-0.57 3.118,-0.57 0.308,0 0.625,0.02 0.941,0.08 -6.121,3.86 -13.152,5.95 -19.359,9.68 -0.137,1.81 1.379,2.26 3.269,2.26 0.949,0 1.989,-0.11 2.961,-0.22 0.977,-0.11 1.883,-0.23 2.567,-0.23 0.371,0 0.671,0.03 0.886,0.12 -3.703,6.53 -12.593,6.37 -17.418,11.62 0.457,0.01 0.91,0.02 1.36,0.02 19.543,0 34.98,-9.62 52.824,-11.64 -3.059,2.61 -6.598,3.91 -10.598,3.91 -0.332,0 -0.668,-0.01 -1.008,-0.03 21.204,16.81 -32.128,17.68 -28.734,27.88 0.801,1.24 2.801,1.49 5.117,1.49 0.778,0 1.586,-0.03 2.399,-0.06 0.816,-0.03 1.633,-0.05 2.418,-0.05 3.437,0 6.308,0.52 5.886,3.9 -2.75,1.95 -32.324,13.94 -19.988,15.23 -7.797,3.78 -15.73,7.29 -23.23,11.62 1.754,1.51 3.761,2.06 5.902,2.06 5.684,0 12.273,-3.89 17.328,-4 -0.851,5.99 -8.832,5.63 -9.676,11.62 2.496,0.78 4.977,1.1 7.438,1.1 6.449,0 12.805,-2.24 19.199,-4.47 6.391,-2.24 12.82,-4.48 19.414,-4.48 0.781,0 1.563,0.03 2.348,0.1 -3.258,7.64 -23.453,6.76 -34.848,15.49 -10.832,7.84 -7.148,9.53 -0.687,9.53 2.449,0 5.296,-0.24 7.906,-0.48 2.605,-0.25 4.976,-0.49 6.465,-0.49 1.09,0 1.711,0.13 1.597,0.49 -1.035,1.78 -2.515,2.67 -4.414,2.67 -0.379,0 -0.777,-0.04 -1.191,-0.11 1.293,1.06 2.848,1.48 4.543,1.48 5.515,0 12.519,-4.41 16.738,-5.35 0.227,2.79 2.231,3.71 4.906,3.71 4.989,0 12.317,-3.21 14.844,-3.58 1.059,-0.16 1.934,-0.23 2.66,-0.23 3.184,0 3.469,1.35 3.657,2.71 0.191,1.36 0.281,2.72 3.074,2.72 0.676,0 1.511,-0.08 2.543,-0.26 2.383,-0.41 7.336,-2.58 11.062,-2.58 1.531,0 2.86,0.37 3.711,1.38 8.098,1.48 -20.301,6.35 -36.781,13.55 1.492,0.94 3.238,1.32 5.148,1.32 6.711,0 15.414,-4.61 21.973,-5.19 -0.387,6.83 -17.93,12.17 -33.512,15.95 -9.316,2.26 -14.922,5.42 -21.05,5.42 -0.524,0 -1.051,-0.02 -1.583,-0.08 1.297,1.21 2.985,1.7 4.918,1.7 3.821,0 8.614,-1.88 13.262,-3.76 4.649,-1.88 9.156,-3.75 12.418,-3.75 0.121,0 0.246,0 0.363,0.01 -6.773,6.11 -16.359,7.54 -23.207,13.55 0.618,0.27 1.657,0.39 2.996,0.39 8.133,0 27.161,-4.35 27.223,-4.64 -0.687,2.72 -4.851,4.83 -7.012,6.18 0.801,0.09 1.594,0.13 2.375,0.13 12.657,0 22.817,-10.9 34.739,-11.43 9.531,-0.42 17.539,-6.17 27.136,-6.17 0.52,0 1.047,0.02 1.579,0.05 -3.45,1.52 -3.852,5.49 -1.45,5.49 0.813,0 1.946,-0.46 3.387,-1.61 4.356,4.45 -11.461,8.7 -13.551,9.67 2.047,2.66 4.676,4 7.895,4 0.574,0 1.168,-0.05 1.777,-0.13 -6.058,5.99 -13.863,9.79 -22.015,12.01 -7.067,1.92 -9.45,9.19 -16.688,9.29 1,0.79 2.258,1.11 3.641,1.11 4.339,0 9.902,-3.16 12.589,-4.75 1.618,-0.96 2.856,-1.23 3.954,-1.23 0.683,0 1.312,0.1 1.953,0.2 0.636,0.11 1.281,0.21 1.992,0.21 1.156,0 2.484,-0.27 4.242,-1.27 1.442,-0.81 19.879,-3.05 23.692,-3.05 0.417,0 0.664,0.03 0.683,0.09 -0.004,-0.02 -0.012,-0.02 -0.027,-0.02 -0.797,0 -15.875,12.32 -17.887,12.57 0.742,1.32 1.848,1.98 3.313,1.98 0.179,0 0.367,-0.01 0.558,-0.03 -1.535,6.36 -12.488,2.82 -13.781,6.47 0.156,-0.46 32.652,-4.57 40.043,-4.57 0.328,0 0.605,0.01 0.832,0.03 2.301,14.05 -44.52,7.52 -40.633,19.36 0.453,0.06 0.887,0.09 1.309,0.09 1.863,0 3.468,-0.57 5.07,-1.15 1.598,-0.57 3.191,-1.14 5.031,-1.14 0.676,0 1.379,0.08 2.129,0.26 -9.437,5.8 -20.48,8.45 -30.973,11.62 0.122,1.72 0.95,2.3 2.036,2.3 1.922,0 4.652,-1.81 5.722,-2.3 -4.351,8.16 -24.476,9.21 -25.175,15.48 1.964,1.1 3.906,1.56 5.816,1.56 7.769,0 15.004,-7.54 21.273,-9.3 4.313,-1.28 29.875,-3.48 30.114,-4.06 -0.996,2.31 -15.485,4.36 -9.297,8.78 0.867,0.62 1.801,0.84 2.781,0.84 1.422,0 2.93,-0.48 4.449,-0.96 1.52,-0.48 3.043,-0.97 4.496,-0.97 1.532,0 2.977,0.54 4.246,2.18 -12.132,4.28 -24.793,6.87 -36.789,11.61 2.059,0.37 3.996,0.53 5.844,0.53 9.074,0 16.055,-3.76 25.149,-4.4 0.605,-0.05 1.21,-0.07 1.82,-0.07 2.965,0 5.953,0.5 8.937,0.99 2.989,0.5 5.973,0.99 8.934,0.99 1.945,0 3.879,-0.21 5.797,-0.78 2.887,-0.85 4.969,-1.68 6.914,-1.68 2.172,0 4.172,1.03 6.93,4.18 2.234,2.55 1.648,9.18 4.332,9.18 0.98,0 2.402,-0.89 4.554,-3.19 1.707,-1.83 7.539,-2.54 13.606,-2.54 7.062,0.01 14.441,0.96 15.996,2.21 0.441,0.35 0.98,0.5 1.59,0.5 3.547,0 9.269,-5.36 9.621,-7.86 4.246,3.16 9.613,4.08 14.851,4.08 1.524,0 3.036,-0.08 4.504,-0.2 2.028,2.23 -2.019,4.02 -3.429,4.02 -0.231,0 -0.391,-0.05 -0.446,-0.15 1.024,2.09 3.121,2.26 5.035,2.26 0.196,0 0.391,0 0.582,0 0.192,0 0.375,0 0.559,0 2.449,0 4.066,0.33 1.574,5.48 4.524,0 9.024,0 13.547,0 -2.765,8.87 -16.238,7.62 -23.223,9.68 2.887,0.48 5.86,0.69 8.848,0.69 5.129,0 10.313,-0.62 15.215,-1.52 2.555,-0.49 16.109,-7.11 19.09,-7.11 0.222,0 0.383,0.03 0.48,0.11 2.637,2.15 3.313,3.04 4.207,3.04 0.946,0 2.137,-0.99 6.164,-2.52 1.36,-0.52 2.442,-0.73 3.332,-0.73 2.004,0 3.055,1.07 4.204,2.14 1.148,1.07 2.386,2.14 4.761,2.14 0.442,0 0.918,-0.03 1.446,-0.11 -10.422,6.34 -21.887,10.63 -33.957,12.49 -3.758,0.58 -30.754,-0.89 -24.114,6.87 -6.453,1.3 -12.793,3.11 -19.351,3.86 6.492,9.52 -23.481,11.32 -30.664,12.86 -4.473,0.95 -34.321,8.11 -32.895,9 0.137,0.07 0.363,0.11 0.66,0.11 1.02,0 2.883,-0.41 4.883,-0.83 1.996,-0.41 4.129,-0.83 5.672,-0.83 0.539,0 1.008,0.05 1.375,0.17 1.305,0.42 2.492,0.61 3.605,0.61 3.571,0 6.399,-1.87 9.981,-3.78 11.582,-6.14 26.773,-4.45 39.312,-7.63 -8.941,4.07 -17.847,8.24 -27.089,11.61 1.418,0.33 2.882,0.47 4.378,0.47 5,0 10.329,-1.6 15.301,-3.19 4.977,-1.6 9.602,-3.2 13.203,-3.2 0.532,0 1.039,0.03 1.524,0.11 4.515,-1.26 9.066,-2.19 13.687,-2.19 1.379,0 2.766,0.09 4.157,0.27 -4.172,6.04 -15.247,4.24 -15.493,13.53 4.219,-0.66 8.543,-2.94 12.883,-2.93 1.52,0 3.039,0.27 4.563,1 -2.207,6.79 -37.004,4.49 -34.844,11.62 14.82,-1.15 28.926,-3.29 42.574,-5.81 2.379,-0.46 4.555,-0.65 6.598,-0.65 9.164,0 15.719,3.85 26.304,4.52 -2.335,1.21 -3.632,3.15 -3.859,5.81 0.57,0.05 1.168,0.07 1.785,0.07 1.774,0 3.735,-0.16 5.758,-0.33 2.024,-0.17 4.109,-0.33 6.133,-0.33 3.613,0 7.031,0.53 9.547,2.52 -8.59,7.19 -22.567,5.69 -32.906,7.76 1.386,2.49 3.656,3.22 6.246,3.22 1.828,0 3.82,-0.37 5.777,-0.73 1.961,-0.36 3.887,-0.72 5.594,-0.72 0.605,0 1.183,0.04 1.726,0.15 -0.898,7.68 -9.597,8.39 -15.476,9.68 1.675,1.09 3.34,1.55 4.98,1.55 4.266,0 8.375,-3.09 12.192,-6.18 3.816,-3.1 7.339,-6.19 10.433,-6.19 1.024,0 1.996,0.34 2.918,1.13 -0.144,1.12 -0.562,2.13 -1.25,3.04 -0.051,0.63 3.289,1.24 6.52,1.24 3.859,0 7.558,-0.87 5.101,-3.59 -0.429,-0.48 -1.297,-0.54 -2.242,-0.54 -0.184,0 -0.363,0 -0.551,0 -0.183,0 -0.371,0.01 -0.554,0.01 -1.571,0 -2.993,-0.18 -2.696,-2.07 0.231,-1.96 1.813,-2.26 3.645,-2.26 0.398,0 0.804,0.01 1.215,0.03 0.41,0.02 0.82,0.03 1.218,0.03 1.645,0 3.102,-0.24 3.59,-1.69 -0.629,-1.61 -1.453,-2.13 -2.371,-2.13 -0.832,0 -1.738,0.43 -2.644,0.86 -0.903,0.43 -1.805,0.86 -2.621,0.86 -0.774,0 -1.473,-0.38 -2.032,-1.52 -3.804,-4.1 0.481,-7.75 -7.301,-7.75 -0.144,0 -0.296,0 -0.453,0.01 1.68,-3.81 4.145,-5.06 6.942,-5.06 4.554,0 9.996,3.3 14.394,4.26 0.598,0.13 1.551,0.22 2.594,0.22 3.535,0 8.137,-1.06 3.688,-5.3 -1.786,-1.72 -4.598,-2.09 -7.426,-2.09 -1.114,0 -2.231,0.06 -3.289,0.12 -1.059,0.05 -2.059,0.11 -2.938,0.11 -0.14,0 -0.277,0 -0.41,0 1.484,-4.7 7.813,-4.83 11.555,-5.9 1.351,-1.28 2.488,-1.93 3.398,-1.93 1.336,0 2.199,1.38 2.598,4.13 1.344,1.16 3.012,1.59 4.808,1.59 4.286,0 9.313,-2.48 12.485,-3.7 1.054,5.98 -1.746,7.28 0.996,13.49 0.793,1.8 1.719,2.02 2.598,2.02 0.144,0 0.289,0 0.429,-0.01 0.141,-0.01 0.281,-0.01 0.418,-0.01 0.961,0 1.785,0.3 2.199,2.99 0,2.17 0.606,4.13 1.829,5.91 1.195,1.09 2.074,1.55 2.695,1.55 3.668,0 -1.477,-16.13 -1.485,-16.27 -0.304,-7.26 7.735,-6.12 11.618,-9.67 -0.301,4.86 -5.535,6.31 0,9.67 -0.52,0.93 -1.227,1.53 -2.114,1.8 1.223,0.38 2.875,1.14 4.243,1.91 1.906,1.07 3.257,2.14 2.144,2.14 -0.098,0 -0.215,-0.01 -0.351,-0.03 0.597,0.08 1.171,0.12 1.718,0.12 4.051,0 6.645,-2 7.176,-3.99 0.527,-1.99 -1.012,-3.98 -5.234,-3.98 -0.539,0 -1.129,0.03 -1.758,0.1 3.062,-5.05 -1.77,-8.87 -0.813,-13.74 0.387,-1.98 3.403,-3.83 5.789,-3.83 1.524,0 2.793,0.75 2.961,2.71 0.469,5.33 -2.07,6.65 3.653,8.3 3.601,1.04 4.297,3.38 1.941,6.56 10.078,-0.22 8.664,-12.59 12.192,-18.98 1.695,-3.04 4.496,-4.31 7.757,-4.31 0.438,0 0.887,0.02 1.34,0.07 5.598,1.98 -0.457,8.38 0,11.61 3.156,-3.23 11.028,-0.75 9.68,-7.73 1.57,0.6 2.871,0.91 3.993,0.91 2.48,0 4.06,-1.53 5.7,-4.79 2.52,2.31 4.81,3.27 6.93,3.27 7.23,0 12.55,-11.19 18.23,-18.76 4.02,0.78 5.24,1.92 6.22,1.92 1.05,0 1.81,-1.31 5.38,-5.79 7.91,-0.81 15.93,-3.5 21.28,-9.67 0.97,3.62 3.4,4.74 6.27,4.74 1.7,0 3.55,-0.39 5.35,-0.88 -4.03,9.46 -15.21,11.75 -21.3,19.37 0.55,0.12 1.1,0.18 1.66,0.18 5.42,0 11.43,-5.31 15.53,-7.69 8.91,-5.18 8.12,-5.15 13.78,-13.18 1.63,-2.31 2.67,-3.15 3.4,-3.15 2,0 1.61,6.34 4.34,6.41 5.07,-1.5 8.68,-5.18 12.94,-8.01 7.35,-4.9 11.26,-5.47 17.76,-12.22 3.97,-4.14 8.43,-7.82 13.55,-10.48 9.22,-4.8 11.36,-7.63 19.31,-14.41 5.1,-4.33 10.82,-7.69 16.39,-11.34 -0.42,-1.25 -1.3,-1.7 -2.41,-1.7 -1.34,0 -3.01,0.64 -4.64,1.28 -1.63,0.63 -3.22,1.27 -4.39,1.27 -1.62,0 -2.43,-1.23 -1.41,-5.39 2.07,-8.53 16.73,-4.14 22.67,-7.05 6.06,-2.97 8.61,-14.88 14.05,-14.88 0.11,0 0.22,0 0.33,0.01 0.33,0.03 0.64,0.04 0.94,0.04 3.89,0 4.2,-2.4 3.94,-4.81 -0.27,-2.41 -1.1,-4.81 0.52,-4.81 0.04,0 0.09,0 0.13,0 1.65,-2.05 7.47,-6.48 10.51,-6.48 1,0 1.7,0.48 1.85,1.69 4.63,-1.05 5.66,-2.17 1.76,-7.06 7.85,-3.29 15.29,-9.75 20.67,-16.12 7.5,-8.9 19.9,-19.67 25.9,-30.52 14.42,-7.54 18.57,-24.24 31.91,-32.53 7.33,-5.47 10.65,-19.82 13.81,-19.82 0.17,0 0.34,0.04 0.51,0.13 1.61,-3.17 2.5,-5.8 1.97,-7 -0.16,-0.02 -0.32,-0.03 -0.48,-0.03 -5.86,0 -10.97,13.25 -12.79,18.38 -2.06,5.75 -7.07,10.19 -11.84,13.74 -6.27,4.7 -4.42,6.32 -9.13,11.24 -11.66,12.17 -26.64,33.05 -43.01,41.06 -0.39,0.05 -0.74,0.07 -1.05,0.07 -5.93,0 3.1,-9.26 5.7,-11.87 -2.05,-6.99 4.58,-4.81 6.56,-6.8 4.15,-5.25 1.41,-7.4 8.32,-12.61 5.3,-3.99 10.28,-6.05 15.37,-10.33 -0.17,-0.76 -0.42,-1.04 -0.73,-1.04 -0.44,0 -1,0.54 -1.67,1.09 -0.68,0.55 -1.48,1.1 -2.39,1.1 -0.34,0 -0.69,-0.08 -1.06,-0.26 -8.26,-7.19 15.34,-10.54 13.15,-16.01 -2.45,-6.19 -1.37,-7.26 1.07,-7.26 0.64,0 1.38,0.08 2.17,0.15 0.79,0.07 1.64,0.15 2.51,0.15 0.52,0 1.05,-0.03 1.58,-0.1 1.02,-2.32 -3.65,-2.64 -4.04,-3.53 -1.46,-4.14 5.57,-8.6 7.8,-11.09 5.07,-5.63 6.81,-16.49 14.84,-18.45 1.15,-11.08 9.5,-17.33 13.21,-26.89 7.83,-25.82 11.14,-29.44 14.1,-29.44 0.45,0 0.9,0.09 1.35,0.19 12.22,6.43 -5.44,24.07 -5.81,32.91 10.97,-14.77 11.76,-31.07 16.21,-39.22 4.29,-7.82 4.48,-16.31 6.91,-24.66 1.95,-6.7 4.02,-13.62 5.61,-20.46 3.58,-15.36 5.17,-31.09 7.93,-46.74 1.57,-8.94 3.18,-17.52 5.61,-26.25 1.89,-6.77 1.99,-10.18 2.25,-14.94 1.39,-23.21 -2.8,-40.61 -2.29,-68.843 -0.45,-0.043 -0.8,-0.066 -1.08,-0.066 -1.46,0 -0.71,0.695 -0.49,3.094 -8.81,-0.586 -8.44,-12.79 -7.14,-16.727 3.2,-9.652 -3.65,-20.738 -2.63,-30.406 0.43,-0.114 0.83,-0.168 1.19,-0.164 4.09,0 4.41,6.535 6.64,8.578 1.48,-10.438 -5.68,-23.43 -8.35,-34.375 -1.4,-5.793 -2.57,-11.153 -0.5,-16.891 -2.94,-2.539 -3.02,-6.476 -3.78,-10.328 -6.45,-19.355 -13.67,-42.144 -16.41,-62.297 0.66,-0.441 1.29,-0.644 1.9,-0.644 6.73,0 10.03,25.121 15.53,25.812 -8.05,-11.879 -12.05,-28.777 -14.83,-42.578 -12.57,-8.105 -10.89,-22.117 -18.09,-36.777 -4.63,1.66 1.68,9.101 1.94,11.613 -0.62,-0.281 -1.19,-0.356 -1.71,-0.356 -0.29,0 -0.57,0.024 -0.85,0.047 -0.27,0.02 -0.54,0.043 -0.8,0.043 -0.65,0 -1.28,-0.132 -1.96,-0.722 -8.38,-7.246 -12.64,-22.618 -14.04,-31.922 -5.84,11.785 6.29,25.301 10.68,35.625 4.46,10.535 8.83,20.984 13.95,31.238 5.62,11.223 11.78,26.965 11.84,39.402 0.02,3.598 -0.51,4.844 -1.37,4.844 -1.89,0 -5.34,-6.031 -7.95,-6.355 0,-14.489 -8.58,-17.879 -13,-30.586 -3,-8.594 -12.69,-13.399 -11.83,-23.848 -11.11,-7.273 -13.46,-18.086 -17.93,-29.453 -0.93,-2.422 -5.34,-12.441 1.02,-12.637 1.94,0.528 2.98,1.707 3.11,3.528 -0.05,-10.805 -14.17,-21.797 -15.73,-33.84 -11.13,-5.469 -10.92,-20.789 -17.3,-30.196 -5.83,4.512 0.24,18.184 0,23.75 -5.38,-10.664 -13.15,-24.511 -19.34,-36.347 -1.79,-3.418 -2.01,-6.348 -3.77,-9.395 -7.06,-10.32 -9.93,-24.277 -16.15,-33.965 -6.29,-9.812 -12.87,-19.316 -24.68,-27.199 0.74,-6.297 -9.24,-12.976 -9.82,-18.367 -12.06,1.953 6.58,13.828 5.45,17.598 -2.3,7.617 14.92,13.574 17.97,16.179 -0.37,0.817 -0.72,1.227 -1.05,1.227 -0.32,0 -0.62,-0.41 -0.89,-1.227 -3.49,3.032 24.54,43.496 27.39,49.543 5.76,12.2 27.8,43.926 19.06,56.848 -0.42,0.445 -0.88,0.648 -1.36,0.648 -4.28,0 -10.46,-16.3 -11.13,-18.003 -1.16,-3.184 -1.77,-4.395 -1.08,-8.79 -2.9,-0.82 -4.43,-3.046 -4.58,-6.648 -3.93,-3.586 -9.07,-11.555 -12.28,-17.133 -10.45,-18.094 -21.45,-32.754 -31.65,-52.156 -1.26,-2.422 -1.06,-7.18 -2.34,-9.648 -1.84,1.457 -4.28,4.121 -6.3,5.292 0,-7.304 -14.62,-20.703 -14.62,-28.222 0,-7.988 0.84,-9.063 -5.98,-11.055 -1.33,-0.39 -15.44,-5.332 -3.59,-7.109 0.11,-0.016 0.21,-0.024 0.3,-0.024 1.1,0 1.87,0.914 2.65,1.828 0.79,0.915 1.58,1.829 2.72,1.829 0.02,0 0.04,0 0.07,0 1.82,-6.133 -8.07,-13.028 -12.04,-17.481 -1.62,-1.777 0.47,-2.703 0.49,-2.703 v 0 c 4.11,-5.027 3.48,-6.859 -3.38,-6.859 -1.23,0 -2.66,0.058 -4.3,0.168 -4.42,-0.684 -6.34,-8.907 -5.41,-15.051 -3.93,-3.641 -10.35,-7.801 -11.86,-12.34 -9.32,-9.699 -18.81,-15.07 -22.78,-28.352 -7.07,8.102 14.29,26.563 20.71,28.653 -0.49,5.976 4.01,7.957 6.49,12.508 1.83,3.39 -1.88,7.25 -5.24,7.25 -1.6,0 -3.11,-0.872 -3.93,-3.079 -2.88,-7.8 -7.03,-11.351 -15,-19.043 -11.37,-11.019 -24.05,-22.128 -32.5,-31.199 -3.57,-3.84 -7.24,-6.179 -10.99,-9.929 -17.65,-17.641 -37.34,-37.129 -58.85,-50.399 -12.643,-8.223 -30.721,-18.859 -44.257,-25.641 -7.187,-3.589 -10.429,-7.511 -17.382,-11.332 -5.032,-2.828 -10.078,-3.527 -13.836,-8.507 -3.696,4.531 28.093,20.308 30.965,22.07 7.168,4.25 13.945,11.148 20.761,13.34 7.879,2.558 18.028,11.66 21.829,18.789 -0.38,0.16 -0.86,0.23 -1.42,0.23 -8.526,0 -36.71,-17.23 -42.928,-20.468 C 944.512,432.18 932.148,422.18 918.457,414.559 905.09,408.84 887.5,403.57 872.82,395 c -15.007,-8.789 -29.468,-19.828 -46.367,-24.461 1.875,3.563 7.094,3.152 7.746,7.742 -0.777,0.258 -1.691,0.379 -2.722,0.379 -8.219,0 -23.715,-7.582 -34.661,-10.859 -1.589,-0.492 -22.246,-9.903 -27.324,-9.903 -0.879,0 -1.293,0.282 -1.054,0.942 0.632,1.82 11.496,9.769 13.496,9.769 -1.118,0.379 -2.336,0.539 -3.633,0.539 -10.071,0 -24.895,-10.046 -34.453,-10.207 -0.371,0.008 -0.739,0.02 -1.102,0.02 -8.176,0 -14.777,-2.449 -20.144,-4.891 -5.368,-2.449 -9.5,-4.89 -12.727,-4.89 -0.766,0 -1.48,0.14 -2.148,0.449 -0.539,0.242 -1.25,0.351 -2.102,0.351 -7.051,0 -23.687,-7.558 -30.656,-8.679 -12.008,-6.09 -23.684,-7.02 -36.281,-11.422 -2.122,12.043 26.324,12.66 34.472,16.84 -2.543,2.051 -5.769,2.84 -9.379,2.84 -10.429,0 -24.043,-6.61 -33.492,-8.778 -6.285,-0.883 -14.137,-0.062 -22.406,-0.883 -9.106,-0.937 -18.711,-3.546 -27.262,-4.199 3.242,3.77 22.129,5.473 27.094,9.59 6.473,1.891 12.406,1.191 19.215,3.652 7.23,2.618 11.66,0.661 17.172,6.11 2.5,2.48 5.218,4.668 8.148,6.57 6.172,4.07 13.016,7.008 19.941,9.481 16.598,5.918 34.079,9.089 50.399,15.808 6.648,2.731 13.125,6.129 18.687,10.738 3.254,-1.136 -6.89,-7.867 -6.824,-11.226 16.008,1.59 33.36,9.367 47.578,16.519 10.938,5.489 21.582,14.399 32.246,17.918 16.946,5.582 31.516,16.5 47.371,24.391 12.153,6.09 25.305,11.621 34.485,22.07 -0.645,0.489 -1.578,0.7 -2.723,0.7 -5.828,0 -16.992,-5.399 -21.672,-5.739 -7.375,-0.551 -11.035,-4.691 -15.293,-6.301 -6.484,-3.128 -12.109,-2.25 -14.511,-8.011 -6.914,-5.18 -9.219,-4.731 -17.414,-7.739 -17.832,-6.761 -34.352,-17.691 -52.774,-22.808 -15.152,-4.203 -36.043,-9.063 -45,-14.402 -15.773,-3.688 -24.336,-19.032 -41.094,-19.032 -1.097,0 -2.234,0.071 -3.406,0.211 -1.324,0.153 -2.555,0.231 -3.711,0.231 -11.351,0 -15.168,-7 -25.062,-7.641 -8.18,-0.5 -14.625,-5.598 -22.188,-8.269 -10.129,-3.551 -19.574,-4.27 -29.375,-9.11 -6.359,-3.14 -14.043,-1.172 -19.832,-4.43 -6.828,-3.808 -20.512,-3.648 -28.426,-7.691 -1.574,0.961 -2.843,1.359 -3.871,1.359 -3.801,0 -4.285,-5.488 -4.625,-8.359 -0.031,0 -0.058,0 -0.09,0 -2.246,0 -4.183,1.172 -5.855,2.34 -1.676,1.16 -3.086,2.332 -4.285,2.332 -1.254,0 -2.278,-1.281 -3.117,-5.18 -2.52,-4.562 -5.637,-6.019 -10.649,-6.019 -0.183,0 -0.367,0 -0.555,0.008 -0.585,0.242 -1.023,0.351 -1.339,0.351 -1.95,0 0.625,-4.012 1.195,-4.91 1.754,-2.813 3.254,-3.801 4.723,-3.801 3.082,0 6.031,4.379 10.914,5.539 0.629,-0.027 1.242,-0.039 1.847,-0.039 4.192,0 7.782,0.711 11.032,1.418 3.253,0.711 6.168,1.434 9.011,1.434 2.383,0 4.715,-0.5 7.153,-1.922 -2.805,-3.84 -18.532,-5.871 -29.567,-6.68 -2.929,-0.191 -6.828,-1.23 -8.898,-1.23 -0.524,0 -0.934,0.058 -1.18,0.23 -0.859,0.578 -2.016,0.82 -3.379,0.82 -3.066,0 -7.156,-1.21 -11.148,-2.429 -3.992,-1.211 -7.883,-2.43 -10.551,-2.43 -0.125,0 -0.25,0.008 -0.367,0.008 -1.754,0.09 -3.446,0.133 -5.098,0.133 -7.629,0 -14.387,-0.961 -22.094,-3.551 -7.765,-2.57 -14.824,-3.922 -22.957,-4.512 -0.297,-0.019 -0.57,-0.027 -0.82,-0.027 -2.48,0 -2.887,0.969 -3.152,1.93 -0.27,0.968 -0.403,1.937 -2.336,1.937 -0.879,0 -2.129,-0.199 -3.93,-0.687 -19.574,-5.282 -36.523,-3.364 -56.48,-4.832 m 52.261,48.402 c 0.77,-1.82 -3.422,-7.242 -3.265,-7.32 2.476,-1.25 5.914,-1.743 9.89,-1.743 13.547,0 33.332,5.762 42.555,7.282 13.871,2.347 27.602,5.449 41.398,8.109 7.368,1.398 14.719,2.75 20.84,5.27 8.766,3.582 18.61,1.351 27.024,6.039 3.129,1.742 15.41,5.211 15.859,8.043 0.758,4.609 2.156,6.046 7.141,7.558 2.179,0.672 4.574,0.871 7.066,0.871 1.863,0 3.785,-0.109 5.707,-0.222 1.926,-0.118 3.852,-0.227 5.735,-0.227 4.332,0 8.425,0.59 11.683,3.117 3.535,1.031 -1.375,5.602 -1.601,7.153 -0.516,3.738 10.992,4.988 13.41,6.168 2.679,1.32 23.965,11.531 21.972,13.359 -0.937,0.141 -1.875,0.281 -2.824,0.441 -14.605,-6.582 -29.222,-13.23 -44.894,-16.832 -5.782,-1.328 -16.864,0.633 -20.094,-4.937 -1,-1.742 -2.766,-5.289 -9.828,-5.512 -0.582,0.043 -1.184,0.063 -1.805,0.063 -10.254,0 -25.078,-5.352 -31.973,-8.692 -5.003,-1.289 -11.433,-1.262 -15.281,-5.23 -2.301,1.05 -4.558,1.441 -6.801,1.441 -3.879,0 -7.718,-1.18 -11.668,-2.18 -5.226,-1.32 -10.511,-1.519 -15.8,-1.519 -1.18,0 -2.368,0.008 -3.547,0.019 -1.184,0.008 -2.367,0.02 -3.547,0.02 -6.238,0 -12.449,-0.281 -18.551,-2.352 -0.207,0.02 -0.422,0.032 -0.641,0.032 -2.281,0 -4.984,-1.071 -8.058,-2.141 -3.074,-1.07 -6.52,-2.141 -10.289,-2.141 -1.403,0 -2.848,0.153 -4.336,0.5 -0.109,0.141 -0.512,0.2 -1.16,0.2 -8.59,0 -60.617,-11.489 -63.887,-16.86 2.406,-0.168 4.941,-0.238 7.563,-0.238 13.613,0 29.535,1.93 42.007,2.461 m 416.164,44.508 c -11.66,-6.442 -32.468,-6.918 -36.765,-15.469 2.676,-0.652 5.508,-1.352 8.246,-1.352 1.32,0 2.617,0.161 3.863,0.571 3.125,2.73 8.27,5.359 13,5.359 1.363,0 2.692,-0.211 3.926,-0.707 -0.434,4.188 15.574,9.949 7.73,11.598 m -496.23,15.73 c -6.539,0 -12.863,-1.691 -9.832,-4.512 2.324,-0.91 11.641,-1.289 6.801,-6.046 1.476,-0.532 4.691,-0.813 8.64,-0.813 12.039,0 30.895,2.66 27.996,9.211 -0.308,2.121 -5.918,3.109 -13.183,3.109 -4.824,0 -10.379,-0.437 -15.602,-1.277 -1.523,0.227 -3.176,0.328 -4.82,0.328 m 604.641,40.43 c -9.122,-4.34 -18.75,-8.02 -27.969,-12.168 l -6.289,-2.781 c -2.93,-1.371 -45.137,-20.922 -31.563,-27.641 23.235,12.051 45.86,25.582 65.821,42.59 M 238.703,446.461 c 0.735,0 2.828,-0.289 5.531,-0.582 2.707,-0.289 6.032,-0.578 9.219,-0.578 5.774,0 11.117,0.937 11.641,4.539 -0.754,0.082 -1.614,0.121 -2.547,0.121 -8.442,0 -23.149,-3.082 -24.078,-3.52 0.047,0.008 0.125,0.02 0.234,0.02 m 59.465,9.668 c -6.07,0 -11.121,-4.168 -5.973,-6.289 1.973,-0.129 3.875,-0.192 5.715,-0.192 14.344,0 24.926,3.711 34.945,7.911 -1.531,1.382 -4.234,1.91 -7.519,1.91 -6.809,0 -16.121,-2.289 -22.734,-4.149 -1.45,0.571 -2.973,0.809 -4.434,0.809 m 662.875,4.633 c -0.262,0 -0.637,-0.301 -1.023,-1.172 0.097,-0.008 0.187,-0.02 0.273,-0.02 0.664,0 0.98,0.301 1.07,0.59 0.086,0.301 -0.054,0.602 -0.32,0.602 m 173.187,114.957 c -0.04,-3.281 -13.15,-7.813 -1.94,-9.668 1.21,4.043 9.92,7.258 1.94,9.668 M 595.496,319.852 c -1.344,0 -2.476,0.117 -3.266,0.359 2.09,8.219 14.356,6.211 23.239,7.738 0,-4.879 -12.918,-8.097 -19.973,-8.097 m 31.805,7.957 c -0.668,0 -1.391,0.05 -2.16,0.14 0.406,2.86 2.492,4 5.812,4 0.602,0 1.246,-0.039 1.93,-0.109 -0.41,-2.879 -2.403,-4.031 -5.582,-4.031 m -58.309,2.07 c -5,2.402 1.61,5.961 6.274,5.961 0.527,0 1.027,-0.039 1.48,-0.141 -1.844,-2.461 -7.176,-1.859 -7.754,-5.82 m 141.328,5.82 c -4.16,4.223 8.512,7.742 15.211,7.742 0.09,0 0.18,-0.011 0.27,-0.011 0.398,-8.141 -12.508,-2.981 -15.481,-7.731 m 27.09,9.59 c -2.574,4.18 14.602,9.211 23.227,9.762 -2.035,-8.949 -17.344,-4.59 -23.227,-9.762 m 141.309,34.93 c -5.875,1.851 0.883,6.453 1.933,7.742 2.004,-3.82 -2.168,-5.25 -1.933,-7.742 m 13.554,9.679 c 8.696,9.383 20.493,14.911 32.903,17.411 -2.703,-6.008 -10.274,-7.2 -15.481,-9.661 -5.757,-2.769 -10.625,-7.668 -17.422,-7.75 m -137.437,7.75 c -1.289,0 -2.57,0 -3.879,0 -0.859,4.633 2.371,5.782 5.813,5.782 -0.247,-2.051 -0.903,-3.989 -1.934,-5.782 m 245.844,27.09 c -0.06,1.782 3.41,2.621 7.81,5.461 6.95,6.223 14.75,10.012 17.35,10.031 0.13,-0.23 0.31,-0.339 0.54,-0.339 1.97,0 7.27,8.078 9.28,10.769 6.69,6.891 23.58,15.192 28.53,22.27 -0.43,-1.039 -0.8,-2.141 -1.08,-3.321 -0.26,-2.039 -6.55,-6.39 -10.78,-10.461 -7.55,-7.25 -13.39,-8.539 -20.71,-16.027 -2.66,-2.699 -11.32,-6.789 -11.62,-6.789 -0.01,0 -0.01,0 0.01,0.02 -2.7,-2.02 -2.02,-4.801 -6.79,-6.821 -4.64,-1.972 -7.58,-3.992 -12.54,-4.793 m 32.89,23.231 c 0.43,0.781 1.06,1.59 1.83,2.41 -0.65,-0.77 -1.26,-1.57 -1.83,-2.41 m 1.83,2.41 c 0.15,0.191 0.31,0.371 0.47,0.551 -0.07,-0.078 -0.14,-0.168 -0.21,-0.27 -0.09,-0.101 -0.18,-0.191 -0.26,-0.281 m 0.47,0.551 c 0.24,0.32 0.42,0.519 0.51,0.57 -0.18,-0.191 -0.35,-0.379 -0.51,-0.57 m 28.32,22 c 0.36,0.84 0.76,1.64 1.21,2.402 -0.22,-0.781 -0.64,-1.582 -1.21,-2.402 m 1.21,2.402 c 0.06,0.219 0.11,0.449 0.14,0.668 0.76,5.621 20.19,24.84 26.09,26.172 -4.08,-5.363 -10.13,-5.652 -8.6,-12.41 l -1.52,-0.75 c -6.22,-4.102 -12.52,-7.563 -16.11,-13.68 m -872.755,34.227 c -1.641,0 -3.348,0.113 -4.969,0.363 0.164,1.066 3.242,3.5 4.859,3.5 0.684,0 1.11,-0.434 0.942,-1.59 0.894,0.02 1.707,0.039 2.441,0.039 5.379,0 6.492,-0.582 5.297,-1.16 -1.199,-0.57 -4.707,-1.152 -8.57,-1.152 m 226.722,65.773 c -1.324,0 -2.824,0.172 -4.32,0.344 -1.492,0.172 -2.984,0.34 -4.301,0.34 -0.902,0 -1.726,-0.078 -2.406,-0.297 2.746,2.89 7.308,3.945 12.906,3.945 0.836,0 1.695,-0.023 2.57,-0.066 0.551,-3.446 -1.539,-4.266 -4.449,-4.266 m 52.844,0.387 -0.863,0.293 c -0.114,0.261 -0.223,0.511 -0.328,0.758 0.425,-0.309 0.824,-0.657 1.191,-1.051 m -23.125,0.191 c -2.109,0 -4.309,0.512 -6.656,1.024 -2.344,0.507 -4.832,1.019 -7.512,1.019 -1.082,0 -2.195,-0.082 -3.34,-0.281 1.473,2.008 6.492,4.039 11.328,4.039 0.817,0 1.625,-0.055 2.41,-0.184 2.008,1.75 4.547,2.746 8.039,2.864 0.051,0 0.106,0.004 0.157,0.004 3.008,0 5.433,-2.204 7.793,-2.758 0.715,0.047 1.371,0.07 1.968,0.07 5.293,0 6.36,-1.785 7.747,-4.937 -2.047,1.476 -4.696,2.011 -7.415,2.011 -4.007,0 -8.171,-1.164 -10.796,-2.203 -1.215,-0.48 -2.454,-0.668 -3.723,-0.668 m -147.305,26.84 c -2.664,0 -14.965,1.926 -17.015,2.773 -1.121,0.45 5.668,4.297 11.031,4.297 3.531,0 6.445,-1.668 6.078,-7.07 -0.031,0 -0.062,0 -0.094,0 m 3.969,3.941 c -0.004,0 -0.004,0.004 -0.004,0.004 0,0 0.004,0 0.004,-0.004 m -74.367,23.571 c -5.903,0 -12.395,0.836 -8.723,4.785 l 13.262,-0.676 c 6.57,0.777 13.219,1.707 19.859,1.707 2.461,0 4.918,-0.125 7.371,-0.437 -1.468,-4.196 -7.89,-4.688 -13.98,-4.688 -0.934,0 -1.856,0.012 -2.754,0.024 -0.898,0.011 -1.77,0.023 -2.594,0.023 -1.84,0 -3.457,-0.059 -4.629,-0.301 -0.382,-0.086 -3.972,-0.437 -7.812,-0.437 M 1291.15,773.309 c 0.01,0.601 -0.04,1.203 -0.12,1.804 0.12,-0.66 0.16,-1.258 0.12,-1.804 M 1382,1022.87 c -8.88,3.96 -0.49,16.54 -1.94,25.17 5.9,-5.09 3.72,-17.43 1.94,-25.17 m -1.94,42.59 c -3.31,3.07 -4.2,8.71 -3.87,15.48 2.91,-3.63 3.71,-9.19 3.87,-15.48 m -10.97,68.77 c -4.2,5.01 -6.86,10.35 -2.57,18.33 2.32,-4.97 2.98,-8 2.57,-18.33 m -4.51,29.94 c -5.26,5.27 -8.61,28.29 -10.11,38.37 5.05,-7.32 0.6,-11.47 4.45,-19.48 2.51,-5.25 6.64,-12.79 5.66,-18.89 m -768.435,28.94 c -0.043,0 -0.059,0.03 -0.047,0.1 0.054,-0.02 0.105,-0.04 0.16,-0.06 -0.047,-0.03 -0.086,-0.04 -0.113,-0.04 m 4.582,5.14 c 0.16,0.17 0.238,0.25 0.25,0.25 0.015,0 -0.036,-0.07 -0.129,-0.2 -0.039,-0.02 -0.082,-0.03 -0.121,-0.05 m -25.868,21.16 c -4.089,0 -9.925,3.68 -9.961,7.09 l -0.281,1.16 c -6.633,0.07 -11.101,3.57 -16.906,6.2 0.746,0.08 1.48,0.12 2.203,0.12 6.484,0 11.938,-2.96 16.524,-5.92 4.585,-2.96 8.304,-5.92 11.312,-5.92 0.316,0 0.629,0.04 0.93,0.11 -0.371,-2.03 -1.903,-2.84 -3.821,-2.84 m 15.582,146.2 c -1.25,0 -2.703,0.46 -4.257,0.93 -1.555,0.46 -3.211,0.92 -4.868,0.92 -0.23,0 -0.464,-0.01 -0.695,-0.03 0.684,2.84 2.012,3.69 3.719,3.69 1.246,0 2.691,-0.45 4.23,-0.9 1.539,-0.45 3.176,-0.9 4.801,-0.9 0.266,0 0.531,0.02 0.793,0.04 -0.687,-2.89 -2.016,-3.75 -3.723,-3.75 m 35.149,84.76 c -0.996,0 -2.113,0.13 -3.231,0.26 -1.117,0.12 -2.23,0.25 -3.211,0.25 -0.66,0 -1.261,-0.06 -1.761,-0.22 0.683,2.7 1.683,3.49 2.996,3.49 0.937,0 2.035,-0.41 3.281,-0.81 1.25,-0.41 2.649,-0.82 4.195,-0.82 0.379,0 0.762,0.03 1.157,0.08 -0.11,-1.78 -1.543,-2.23 -3.426,-2.23 m 175.687,11.91 c 0.004,0 0.004,0 0.004,0 0,0 0,0 -0.004,0 m -76.519,3.49 c -2.563,0 -5.949,1.61 -6.711,2.32 0.488,1.69 1.242,2.26 2.148,2.26 0.934,0 2.035,-0.6 3.18,-1.21 1.145,-0.6 2.34,-1.2 3.461,-1.2 0.305,0 0.605,0.04 0.898,0.15 -0.183,-1.73 -1.429,-2.32 -2.976,-2.32 m 35.347,1.15 c -6.738,0 -17.875,4.29 -24.628,5.03 -2.579,0 -5.164,0 -7.743,0 0.102,2.31 2.645,3.42 6.36,3.42 2.398,0 5.289,-0.46 8.328,-1.37 1.051,0.18 2.137,0.26 3.242,0.26 7.969,0 16.902,-4.12 18.856,-6.17 -1.004,-0.84 -2.54,-1.17 -4.415,-1.17 m 30.325,0.67 c -2.399,0 -3.723,1.09 -5.063,2.19 -1.336,1.09 -2.691,2.18 -5.144,2.18 -0.075,0 -0.149,0 -0.223,-0.01 0.531,1.1 2.246,1.6 4.285,1.6 4.129,0 9.59,-2.06 9.27,-5.46 -1.223,-0.35 -2.246,-0.5 -3.125,-0.5 m 8.246,2.29 c -1.024,0 -2.106,0.07 -3.196,0.14 1.481,2.6 4.403,3.9 8.567,3.9 0.359,0 0.73,-0.01 1.109,-0.03 -0.179,-3.31 -2.98,-4.01 -6.48,-4.01 m 244.054,34.13 c -4.64,0 -10.07,6.85 -14.96,8.6 0.62,0.5 1.28,0.71 1.98,0.71 1.97,0 4.26,-1.66 6.89,-3.32 2.63,-1.67 5.58,-3.34 8.87,-3.34 0.52,0 1.06,0.05 1.6,0.14 -1.34,-2.01 -2.81,-2.79 -4.38,-2.79 m -99.574,29.51 c -0.351,0 -0.558,0.11 -0.558,0.37 0.195,0.02 0.382,0.03 0.566,0.03 0.43,0 0.828,-0.05 1.195,-0.17 -0.48,-0.14 -0.898,-0.23 -1.203,-0.23 m 7.176,4.25 c 0.02,0 0.039,0 0.063,0 -0.024,0 -0.043,0 -0.063,0 m -155.523,2.9 c -1.715,0 -3.598,0.32 -5.68,0.64 -2.082,0.32 -4.363,0.64 -6.871,0.64 -1.336,0 -2.735,-0.09 -4.199,-0.32 2.379,2.82 6.218,3.73 10.402,3.73 4.324,0 9.012,-0.97 12.816,-1.79 -1.886,-2.25 -4.007,-2.9 -6.468,-2.9 m 31.691,0.08 c -4.465,0 -8.504,2.66 -15.543,2.82 0.789,2.28 2.863,3.04 5.496,3.04 2.66,0 5.891,-0.78 8.945,-1.56 3.055,-0.77 5.938,-1.55 7.903,-1.55 0.324,0 0.625,0.02 0.898,0.07 -2.988,-2.11 -5.398,-2.82 -7.699,-2.82 m -64.027,6.28 c -1.121,0 -2.352,0.13 -3.512,0.26 -1.16,0.14 -2.246,0.27 -3.082,0.27 -0.418,0 -0.777,-0.03 -1.043,-0.12 0.25,1.79 3.551,2.19 6.582,2.19 2.371,0 4.582,-0.24 5.035,-0.24 -0.109,-1.88 -1.848,-2.36 -3.98,-2.36"
         inkscape:connector-curvature="0" /></clipPath><clipPath
       id="clipPath20-5"
       clipPathUnits="userSpaceOnUse"><path
         inkscape:connector-curvature="0"
         style="clip-rule:evenodd"
         id="path18-7"
         d="m 2677.04,3895.61 h 765.22 c 37.07,0 67.39,30.33 67.39,67.39 v 760.2 c 0,37.06 -30.32,67.39 -67.39,67.39 h -765.22 c -37.07,0 -67.39,-30.33 -67.39,-67.39 V 3963 c 0,-37.06 30.32,-67.39 67.39,-67.39 z" /></clipPath><linearGradient
       id="linearGradient28"
       spreadMethod="pad"
       gradientTransform="scale(10)"
       gradientUnits="userSpaceOnUse"
       y2="476.75601"
       x2="306.086"
       y1="390.39801"
       x1="306.08499"><stop
         id="stop22"
         offset="0"
         style="stop-opacity:1;stop-color:#298fc3" /><stop
         id="stop24"
         offset="0.382813"
         style="stop-opacity:1;stop-color:#3da6d5" /><stop
         id="stop26"
         offset="1"
         style="stop-opacity:1;stop-color:#5cc7f1" /></linearGradient></defs><path
     style="fill:#2eb7eb;fill-opacity:1;fill-rule:evenodd;stroke:none;stroke-width:0.05524418"
     d="m 84.67979,0.545438 c -0.954619,0.0011 -1.909839,-0.0025 -2.863908,0.0024 -1.043008,0.06574 -1.985525,0.910988 -2.150151,1.944606 -1.409282,9.610278 -2.815809,19.22055 -4.223429,28.830827 -0.191699,1.161785 0.772388,1.624836 1.8038,1.629808 0.852967,-5.39e-4 1.70504,0 2.558007,0 1.198801,0.03425 2.212488,-0.91001 2.372693,-2.077319 0.419859,-2.864411 0.839328,-5.729728 1.259182,-8.594138 0.232026,-1.667822 0.709986,-3.20087 2.021486,-4.360997 1.2789,-1.120352 2.84136,-1.708311 4.551168,-1.501145 1.896532,0.236445 2.658313,1.550815 2.752225,3.344593 0.05138,1.029751 -0.113742,1.972189 -0.255717,2.982053 -0.422067,2.91634 -0.842779,5.832106 -1.264846,8.747893 -0.207716,1.003787 1.056508,1.444586 1.854788,1.429123 h 2.657542 c 0.942467,-0.03094 1.811908,-0.702209 2.121828,-1.586116 0.0906,-0.244732 0.108497,-0.507075 0.152138,-0.762303 0.523715,-3.393097 1.046473,-6.78609 1.570743,-10.178635 0.471781,-3.168253 -0.129222,-6.146158 -2.764369,-8.149864 -1.467288,-1.113722 -3.198655,-1.512165 -5.017296,-1.49062 -2.735138,0.02707 -4.947066,0.748917 -7.057393,2.551535 C 85.304652,9.517941 85.852762,5.728676 86.400231,1.938926 86.468181,1.498077 86.242586,1.138332 85.879081,0.89581 85.52607,0.661575 85.099641,0.558114 84.67979,0.545407 Z M 53.738457,1.535143 c -0.1449,-0.0023 -0.293831,0.0028 -0.445891,0.01619 -2.067235,0.186173 -3.725924,1.975808 -3.8447,4.03973 -0.09944,1.713675 1.080928,3.105646 2.7935,3.253148 2.075523,0.178438 4.056085,-1.274677 4.50909,-3.306558 C 57.246617,3.317351 55.91194,1.568856 53.738457,1.535146 Z M 2.8234465,1.898489 C 1.9653112,1.852509 1.3200038,2.907104 1.1305164,3.662635 0.87805027,4.656478 0.62442977,5.650039 0.37306897,6.643881 c -0.2646197,1.12201 0.2927056,2.368512 1.28102963,2.94968 0.21269,0.127615 0.448406,0.206492 0.6749015,0.304275 2.6390197,1.087205 5.2780506,2.175399 7.9176179,3.262052 -0.401073,2.892033 -0.8038474,5.783839 -1.2065775,8.675872 -0.060774,0.412674 -0.1111734,0.827519 -0.1327186,1.244613 -0.3121295,5.787932 4.0692581,10.01362 9.8185201,9.837943 2.693153,-0.08231 5.093529,-1.069875 7.181202,-2.770843 2.443455,2.489303 5.794396,3.212139 9.133906,2.556391 4.797957,-0.940808 8.963203,-5.085652 9.927766,-9.868693 0.109939,-0.541945 0.178419,-1.091796 0.254101,-1.638713 0.398313,-2.890928 0.79613,-5.781447 1.194443,-8.671823 0.0453,-0.28064 -0.03609,-0.573661 -0.21121,-0.796295 -0.396656,-0.509351 -1.117348,-0.710948 -1.736636,-0.715368 -0.992183,5.39e-4 -1.984458,-8.28e-4 -2.977198,8.29e-4 -1.078366,0.03315 -2.073977,0.832751 -2.366219,1.866922 -0.05635,0.191145 -0.0746,0.390841 -0.102776,0.587511 -0.365164,2.651168 -0.729996,5.302049 -1.095713,7.953217 -0.301075,2.035747 -1.246889,3.80344 -3.497536,4.182967 -2.213634,0.379528 -4.001104,-1.197622 -3.738694,-3.432801 0.233682,-1.710913 0.467929,-3.421294 0.701612,-5.132206 0.02044,-0.178439 0.06465,-0.355364 0.04532,-0.534908 -0.02873,-0.519295 -0.281911,-1.025133 -0.695138,-1.343339 -0.344724,-0.271249 -0.787141,-0.4061 -1.22357,-0.400576 -0.892746,5.39e-4 -1.786652,-5.39e-4 -2.679398,0 -0.172914,0.0011 -0.346911,-0.0065 -0.518726,0.0178 -1.000467,0.127614 -1.885528,0.898116 -2.150148,1.870966 -0.03094,0.151922 -0.04503,0.306622 -0.06879,0.459648 -0.222081,1.567278 -0.441495,3.134157 -0.663576,4.700882 -0.204404,1.637984 -1.147842,2.986368 -2.710147,3.596263 -0.717622,0.278984 -1.525999,0.339432 -2.272348,0.14 -1.579983,-0.428693 -2.423584,-1.991142 -2.174433,-3.584937 0.536973,-3.858253 1.073975,-7.715512 1.61039,-11.57376 C 18.098939,9.125667 17.396808,7.830744 16.188066,7.372217 11.859684,5.577886 7.5327284,3.780715 3.2037945,1.989146 3.0732085,1.933556 2.9460419,1.905076 2.8234495,1.898506 Z m 65.0475965,8.374836 c -1.341199,10e-4 -2.685112,0.210132 -3.960424,0.610166 -3.208582,0.992186 -5.975764,3.429255 -6.36468,6.906876 -0.197777,1.767814 0.205678,3.368154 1.638713,4.503422 1.154601,0.926445 2.796555,1.565571 4.185393,1.993161 1.147972,0.35522 3.834372,0.93166 4.367475,2.084605 0.139216,0.300529 0.0908,0.653208 -0.04289,0.946002 -0.543049,1.176148 -2.337667,1.241513 -3.440895,1.189583 -1.363427,-0.06519 -2.711239,-0.41938 -3.930479,-1.03259 -0.651329,-0.316549 -1.321539,-0.727406 -1.96403,-1.077102 -0.542497,-0.277325 -1.264635,-0.11962 -1.64195,0.35769 -0.575092,0.757398 -1.148336,1.515757 -1.722873,2.273154 -0.101096,0.133691 -0.211652,0.264979 -0.273525,0.422425 -0.145844,0.343618 -0.08464,0.763126 0.154567,1.050396 0.431455,0.559071 2.370733,1.607484 3.029794,1.904145 0.773419,0.348585 1.580864,0.616166 2.403449,0.82057 2.758895,0.688342 5.81173,0.701297 8.457377,-0.436181 3.178195,-1.366189 5.293506,-4.025245 5.408967,-7.543747 0.04309,-1.317574 -0.231574,-2.63328 -1.192822,-3.599501 -0.72646,-0.741929 -2.321242,-1.472903 -3.319507,-1.791662 -0.891641,-0.288375 -1.794805,-0.537095 -2.69639,-0.789009 -0.713201,-0.205508 -2.967657,-0.715776 -3.156041,-1.63062 -0.07679,-0.378423 0.03232,-0.793439 0.298613,-1.076289 1.262882,-1.362874 4.77543,-0.68942 6.23277,-0.02428 0.588901,0.25799 1.379575,0.878537 1.939751,0.9719 0.608238,0.106069 1.024512,-0.299053 1.369236,-0.740455 0.381185,-0.485043 0.762018,-0.969717 1.142651,-1.454209 0.530345,-0.634755 0.577181,-1.603373 0.154563,-2.305527 -0.223739,-0.350801 -0.387085,-0.492242 -0.732364,-0.724268 -1.8821,-1.234365 -4.109115,-1.810379 -6.344449,-1.808655 z m -16.72296,0.733985 c -0.118499,5.38e-4 -0.236501,0.0038 -0.354448,0.01538 -0.891641,0.102202 -1.686876,0.772678 -1.945419,1.63062 -0.06629,0.211585 -0.08308,0.434584 -0.117338,0.652246 -0.856837,6.096747 -1.714375,12.193716 -2.571763,18.290463 -0.06243,0.455212 0.239537,0.832259 0.619065,1.047159 0.371241,0.208823 0.804449,0.289943 1.227618,0.279999 h 2.597667 c 0.952962,-0.03591 1.829795,-0.73804 2.101596,-1.646806 0.04585,-0.14916 0.06666,-0.303899 0.08821,-0.45803 0.864022,-6.146467 1.728785,-12.292895 2.592803,-18.439362 0.02652,-0.162971 0.0109,-0.332521 -0.05098,-0.485547 -0.204403,-0.508799 -0.782788,-0.765734 -1.28993,-0.849705 -0.232026,-0.03812 -0.468186,-0.0356 -0.702424,-0.0356 h -1.839403 c -0.118499,0.0011 -0.236754,-0.0014 -0.355252,-8.29e-4 z"
     id="path32-1"
     inkscape:connector-curvature="0" /></svg>